<?xml version="1.0" encoding="utf-8"?>
<!-- Generator: Adobe Illustrator 16.0.0, SVG Export Plug-In . SVG Version: 6.00 Build 0)  -->
<!DOCTYPE svg PUBLIC "-//W3C//DTD SVG 1.1//EN" "http://www.w3.org/Graphics/SVG/1.1/DTD/svg11.dtd">
<svg version="1.1" id="Layer_1" xmlns="http://www.w3.org/2000/svg" xmlns:xlink="http://www.w3.org/1999/xlink" x="0px" y="0px"
	 width="61.648px" height="60.415px" viewBox="0 0 61.648 60.415" enable-background="new 0 0 61.648 60.415" xml:space="preserve">
<g id="Mini_logo">
</g>
<g id="Container">
	<g id="Small_Logo_2_">
		<g id="XMLID_1_" display="none">
			<g display="inline">
				<path fill="#8DD7F7" d="M35.63,25.103c0.3,0.25,0.391,0.648,0.248,1.082c-0.196,0.617-0.76,1.051-1.256,0.943
					c-0.042-0.01-0.104-0.062-0.161-0.112c-0.096-0.076-0.2-0.168-0.333-0.173c-0.42,0-0.631,0.525-0.684,0.688
					c-0.009,0.025,0,0.051,0.016,0.076c0.146,0.184,0.096,0.281,0,0.444c-0.043,0.086-0.092,0.184-0.119,0.306
					c-0.054,0.312-0.109,0.449-0.215,0.607c-0.015,0.021-0.023,0.051-0.015,0.076c0.015,0.025,0.033,0.041,0.062,0.046
					c0.065,0.011,0.076,0.092,0.07,0.286v0.022c-0.108,0.086-0.219,0.163-0.338,0.239c-0.301,0.199-0.602,0.408-0.787,0.755
					c0,0.016-0.005,0.031-0.005,0.046c0.024,0.214-0.022,0.341-0.091,0.49c-0.019,0.035-0.004,0.076,0.024,0.098
					c0.313,0.209,0.505,0.643,0.501,1.133c-0.011,0.484-0.215,0.912-0.529,1.105c-0.024,0.016-0.034,0.036-0.039,0.062
					c-0.004,0.025,0.005,0.046,0.024,0.066c0.124,0.116,0.229,0.352,0.113,0.621c-0.005,0.016-0.005,0.036,0,0.051
					c0.066,0.262,0.396,0.43,0.711,0.592c0.271,0.139,0.554,0.281,0.572,0.435c0.009,0.082-0.053,0.175-0.172,0.274
					c-0.015,0.021-0.024,0.053-0.02,0.078c0.005,0.029,0.02,0.051,0.053,0.056c0.129,0.03,0.139,0.194,0.139,0.429
					c0,0.076,0,0.153,0.004,0.221c0.005,0.024,0.021,0.051,0.054,0.061c0.118,0.036,0.194,0.118,0.215,0.229
					c0.022,0.133-0.033,0.281-0.14,0.383c-0.032,0.025-0.038,0.072-0.014,0.104l0.023,0.04c0.156,0.229,0.334,0.5,0.725,0.521
					c0.02,0,0.043-0.004,0.062-0.021c0.152-0.173,0.339-0.265,0.538-0.265c0.405,0,0.825,0.377,0.997,0.888
					c0.139,0.438,0.043,0.843-0.271,1.106c-0.021,0.011-0.029,0.035-0.029,0.062c0,0.021,0.01,0.046,0.029,0.056
					c0.204,0.158,0.313,0.455,0.3,0.791c-0.019,0.338-0.157,0.623-0.362,0.756c-0.032,0.016-0.043,0.062-0.022,0.098
					c0.119,0.244,0.133,0.494,0.033,0.734c-0.13,0.32-0.458,0.605-0.82,0.713c-0.033,0.012-0.053,0.037-0.053,0.066
					c-0.071,0.576-0.597,0.831-1.072,0.831c-0.076,0-0.145-0.005-0.215-0.015c-0.016-0.006-0.033,0.005-0.054,0.015
					c-0.457,0.438-1.105,0.761-1.987,0.979c-0.038,0.011-0.062,0.045-0.058,0.086c0.011,0.088,0.02,0.185,0.034,0.281
					c0.009,0.188,0.023,0.383,0.076,0.541c-0.01,0-0.01,0-0.01,0c-0.053-0.021-0.133-0.025-0.187,0.045
					c-0.038,0.062-0.07,0.123-0.104,0.189c-0.077,0.146-0.144,0.285-0.264,0.361c-0.075-0.071-0.138-0.174-0.199-0.26
					c-0.09-0.133-0.177-0.26-0.286-0.332c0.029-0.133,0.034-0.285,0.048-0.438c0.01-0.133,0.014-0.265,0.038-0.388
					c0.005-0.035-0.014-0.076-0.052-0.088c-0.129-0.039-0.263-0.08-0.396-0.116c-0.257-0.076-0.515-0.147-0.792-0.271
					c-0.162-0.072-0.319-0.188-0.467-0.297c-0.187-0.132-0.357-0.265-0.539-0.311c-0.067-0.016-0.158-0.016-0.239-0.006
					c-0.057,0.006-0.108,0.016-0.167,0.006c-0.51-0.077-0.739-0.495-0.839-0.838c-0.01-0.024-0.029-0.041-0.057-0.051
					c-0.234-0.029-0.42-0.162-0.548-0.371c-0.167-0.281-0.2-0.664-0.092-1.053c0.006-0.02,0.006-0.039-0.005-0.056
					c-0.009-0.021-0.022-0.03-0.042-0.041c-0.21-0.062-0.362-0.233-0.438-0.489c-0.096-0.337-0.024-0.734,0.172-0.979
					c0.014-0.016,0.023-0.036,0.019-0.062c-0.005-0.021-0.015-0.041-0.034-0.051c-0.409-0.307-0.318-0.816-0.257-1.021
					c0.139-0.479,0.562-0.983,1.073-0.983c0.053,0,0.11,0.005,0.162,0.021c0.057,0.01,0.11,0.057,0.167,0.103
					c0.086,0.065,0.181,0.144,0.31,0.144c0.167,0,0.339-0.087,0.473-0.23c0.128-0.151,0.205-0.336,0.2-0.52
					c-0.006-0.066-0.034-0.128-0.058-0.179c-0.023-0.052-0.048-0.099-0.043-0.133c0.004-0.071,0.047-0.138,0.101-0.216
					c0.047-0.061,0.1-0.137,0.124-0.223c0.019-0.062,0.004-0.123-0.011-0.175c-0.009-0.017-0.014-0.046-0.014-0.056
					c0.009-0.077,0.057-0.133,0.104-0.189c0.053-0.061,0.109-0.133,0.124-0.234c0.005-0.024-0.005-0.051-0.02-0.065
					c-0.085-0.092-0.124-0.179-0.114-0.255c0.02-0.158,0.253-0.312,0.478-0.459c0.343-0.225,0.763-0.5,0.629-0.949
					c0.027-0.035,0.043-0.07,0.062-0.107c0.023-0.056,0.047-0.105,0.085-0.121c0.024-0.017,0.043-0.037,0.043-0.062
					c0.005-0.029-0.009-0.057-0.027-0.07c-0.505-0.384-0.802-1.316-0.415-1.955c0.038-0.064,0.095-0.11,0.152-0.156
					c0.085-0.077,0.187-0.164,0.22-0.327c0.009-0.021,0.005-0.041-0.011-0.062c-0.009-0.016-0.027-0.031-0.052-0.031
					c-0.048-0.004-0.066-0.024-0.072-0.041c-0.052-0.07-0.004-0.264,0.02-0.376l0.015-0.057c0.005-0.015,0.005-0.03,0-0.04
					c-0.104-0.316-0.381-0.434-0.652-0.552c-0.306-0.127-0.567-0.239-0.605-0.592c0-0.02,0.014-0.03,0.066-0.056
					c0.043-0.025,0.104-0.056,0.134-0.133c0.005-0.021,0-0.046-0.005-0.062c-0.015-0.02-0.029-0.035-0.048-0.04
					c-0.147-0.036-0.157-0.153-0.147-0.398c0.004-0.076,0.009-0.147,0-0.209c0-0.016-0.005-0.025-0.01-0.036
					c-0.047-0.065-0.109-0.111-0.167-0.152c-0.047-0.031-0.096-0.066-0.124-0.107c-0.004-0.112,0.039-0.168,0.091-0.239
					c0.043-0.057,0.091-0.123,0.11-0.22c0.004-0.025,0-0.051-0.02-0.071c-0.034-0.031-0.066-0.082-0.101-0.133
					c-0.128-0.184-0.311-0.438-0.658-0.383c-0.11,0.021-0.196,0.092-0.277,0.158c-0.076,0.062-0.143,0.122-0.214,0.128
					c-0.5,0.035-0.868-0.419-1.006-0.873c-0.12-0.388-0.11-0.902,0.257-1.188c0.015-0.015,0.028-0.035,0.028-0.061
					c0-0.021-0.009-0.046-0.028-0.062c-0.181-0.158-0.281-0.429-0.271-0.729c0.019-0.337,0.157-0.653,0.366-0.812
					c0.029-0.021,0.044-0.061,0.029-0.097c-0.115-0.255-0.124-0.495-0.029-0.729c0.139-0.367,0.496-0.612,0.782-0.725
					c0.02-0.01,0.043-0.03,0.043-0.056c0.133-0.622,0.554-0.888,1.287-0.826c0.02,0.005,0.038-0.006,0.053-0.016
					c0.435-0.413,1.06-0.714,1.959-0.944c0.038-0.005,0.058-0.04,0.058-0.076c-0.02-0.234-0.058-0.541-0.09-0.806
					c0.167-0.031,0.248-0.194,0.318-0.342c0.062-0.117,0.124-0.235,0.22-0.281c0.071,0.072,0.139,0.169,0.204,0.261
					c0.092,0.133,0.182,0.26,0.291,0.331c-0.048,0.275-0.075,0.582-0.091,0.867c-0.004,0.041,0.024,0.077,0.059,0.082
					c0.81,0.179,1.54,0.505,2.16,0.979c0.015,0.016,0.037,0.021,0.058,0.016c0.065-0.016,0.129-0.021,0.195-0.021
					c0.562,0,0.93,0.479,1.087,0.893c0.005,0.025,0.023,0.046,0.048,0.051c0.232,0.046,0.429,0.209,0.549,0.444
					c0.143,0.29,0.162,0.652,0.033,0.974c-0.01,0.021-0.01,0.041,0,0.062c0.014,0.021,0.022,0.036,0.043,0.041
					c0.219,0.056,0.386,0.25,0.462,0.525c0.091,0.347,0.015,0.725-0.19,0.938c-0.015,0.021-0.02,0.036-0.02,0.062
					C35.606,25.067,35.611,25.087,35.63,25.103z M33.48,23.75c0.023-0.378-0.043-0.679-0.215-0.903
					c-0.238-0.321-0.658-0.428-0.949-0.459c-0.038,0-0.062-0.025-0.065-0.061c-0.092-0.521-0.481-0.878-0.982-0.894
					c0.033,0.256,0.043,0.516,0.057,0.766c0.02,0.454,0.039,0.883,0.167,1.255c0.015,0.046,0.038,0.076,0.066,0.117
					c0.043,0.057,0.091,0.128,0.104,0.22c0.021,0.188-0.052,0.408-0.118,0.633c-0.049,0.138-0.092,0.28-0.114,0.418
					c-0.109,0.602-0.229,1.229-0.144,1.811c0.077,0.031,0.182,0.041,0.277,0.057c0.1,0.01,0.19,0.021,0.281,0.051
					c0.01,0,0.015-0.005,0.019-0.005c0.102-0.367,0.21-0.648,0.436-0.913c0.172-0.204,0.396-0.342,0.586-0.465
					c0.134-0.081,0.263-0.163,0.349-0.25c0.104-0.102,0.205-0.275,0.195-0.397c-0.01-0.046-0.033-0.082-0.076-0.112
					c-0.119-0.021-0.152,0.021-0.205,0.103c-0.043,0.081-0.129,0.198-0.313,0.147c-0.115-0.03-0.191-0.112-0.211-0.24
					c-0.037-0.214,0.096-0.525,0.286-0.673c0.139-0.107,0.271-0.133,0.392-0.158C33.361,23.782,33.417,23.771,33.48,23.75z
					 M33.454,39.677c0.033-0.117-0.07-0.312-0.124-0.377c-0.1-0.107-0.237-0.189-0.391-0.275c-0.182-0.103-0.391-0.219-0.544-0.397
					c-0.224-0.274-0.305-0.571-0.396-0.919c-0.016-0.035-0.023-0.076-0.033-0.111c-0.124,0.01-0.248,0.03-0.367,0.051
					c-0.076,0.011-0.162,0.025-0.238,0.035c-0.015,0.99,0.147,2.01,0.424,2.668c0.011,0.021,0.011,0.041,0,0.058
					c-0.262,0.709-0.334,1.551-0.386,2.499c0.524-0.105,0.758-0.53,0.92-0.928c0.01-0.025,0.033-0.047,0.062-0.047
					c0.329,0,0.581-0.103,0.753-0.301c0.215-0.234,0.318-0.592,0.31-1.041c-0.281-0.041-0.548-0.234-0.677-0.479
					c-0.096-0.204-0.091-0.424,0.02-0.622c0.01-0.017,0.028-0.031,0.043-0.031c0.058-0.017,0.101-0.024,0.144-0.024
					c0.195,0,0.276,0.127,0.344,0.229c0.023,0.036,0.043,0.07,0.076,0.104C33.437,39.739,33.449,39.704,33.454,39.677z
					 M30.232,42.917c0.029-0.459-0.057-1.622-0.2-2.015c-0.014-0.031-0.043-0.066-0.071-0.104c-0.042-0.051-0.091-0.111-0.104-0.193
					c-0.024-0.193,0.042-0.434,0.119-0.684c0.028-0.117,0.057-0.23,0.085-0.342c0.12-0.566,0.172-1.057,0.196-1.796
					c-0.067-0.082-0.22-0.099-0.367-0.112c-0.081-0.005-0.167-0.016-0.243-0.031c-0.143,0.526-0.381,0.908-0.768,1.24
					c-0.105,0.088-0.229,0.158-0.349,0.225c-0.233,0.134-0.453,0.256-0.453,0.459c-0.005,0.107,0.096,0.205,0.139,0.209
					c0.062,0,0.096-0.041,0.143-0.111c0.062-0.092,0.158-0.209,0.324-0.168c0.077,0.016,0.139,0.061,0.177,0.133
					c0.057,0.111,0.066,0.28,0.009,0.459c-0.108,0.348-0.553,0.505-0.801,0.54c-0.043,0.353,0.014,0.644,0.167,0.856
					c0.191,0.267,0.521,0.43,0.973,0.484c0.029,0.006,0.054,0.025,0.062,0.057C29.411,42.535,29.727,42.826,30.232,42.917z
					 M29.86,26.72c0.086-0.015,0.177-0.03,0.296-0.046c-0.053-0.877-0.109-1.974-0.424-2.663c-0.01-0.015-0.01-0.04,0-0.061
					c0.286-0.745,0.357-1.694,0.386-2.541c-0.404,0.082-0.663,0.353-0.854,0.898c-0.005,0.025-0.029,0.046-0.059,0.046
					c-0.743,0.061-1.105,0.52-1.101,1.397c0.343-0.021,0.677,0.357,0.734,0.699c0.038,0.198-0.029,0.352-0.183,0.413
					c-0.047,0.021-0.095,0.035-0.138,0.035c-0.143,0-0.214-0.112-0.267-0.204c-0.048-0.071-0.076-0.122-0.134-0.138
					c-0.028,0.031-0.043,0.066-0.043,0.112c-0.014,0.123,0.067,0.261,0.114,0.321c0.101,0.128,0.258,0.229,0.42,0.342
					c0.229,0.148,0.491,0.321,0.648,0.592c0.138,0.235,0.194,0.485,0.275,0.801c0,0.011,0,0.021,0,0.031
					c0,0.005,0.005,0.005,0.005,0.01C29.67,26.746,29.765,26.735,29.86,26.72z"/>
			</g>
			<g display="inline">
				<path fill="#FFFFFF" stroke="#FFFFFF" stroke-width="0.5" stroke-linecap="round" stroke-linejoin="round" d="M30.823,45.948
					c-0.014,0-0.028-0.005-0.043-0.017c-0.109-0.086-0.186-0.209-0.267-0.326c-0.09-0.133-0.176-0.26-0.276-0.301
					c-0.034-0.016-0.057-0.057-0.043-0.092c0.033-0.138,0.043-0.312,0.058-0.475c0.01-0.112,0.014-0.229,0.028-0.338
					c-0.109-0.035-0.22-0.065-0.334-0.102c-0.257-0.072-0.523-0.145-0.811-0.271c-0.176-0.076-0.334-0.198-0.491-0.315
					c-0.176-0.123-0.338-0.239-0.491-0.286c-0.052-0.01-0.124-0.005-0.194,0c-0.062,0.006-0.134,0.016-0.2,0.006
					c-0.439-0.065-0.772-0.388-0.936-0.897c-0.253-0.046-0.467-0.204-0.604-0.435c-0.178-0.301-0.225-0.699-0.129-1.105
					c-0.22-0.087-0.381-0.286-0.462-0.566c-0.105-0.361-0.043-0.775,0.151-1.062c-0.295-0.261-0.391-0.679-0.257-1.144
					c0.157-0.529,0.634-1.092,1.211-1.092c0.062,0,0.129,0.006,0.191,0.021c0.086,0.016,0.151,0.076,0.224,0.133
					c0.071,0.056,0.143,0.111,0.224,0.111c0.124,0,0.263-0.065,0.367-0.184c0.105-0.123,0.167-0.266,0.162-0.408
					c0-0.031-0.019-0.07-0.043-0.117c-0.029-0.062-0.062-0.133-0.057-0.209c0.009-0.123,0.07-0.209,0.128-0.297
					c0.043-0.061,0.086-0.117,0.104-0.184c0-0.016-0.009-0.051-0.014-0.076c-0.014-0.035-0.029-0.082-0.019-0.121
					c0.019-0.123,0.086-0.199,0.138-0.271c0.038-0.041,0.066-0.082,0.081-0.123c-0.095-0.122-0.133-0.234-0.124-0.352
					c0.029-0.229,0.281-0.394,0.543-0.572c0.42-0.271,0.682-0.475,0.562-0.805c-0.015-0.031-0.01-0.062,0.015-0.082
					c0.023-0.025,0.043-0.066,0.062-0.107c0.02-0.035,0.038-0.081,0.071-0.122c-0.524-0.454-0.792-1.413-0.376-2.097
					c0.052-0.088,0.119-0.144,0.176-0.199c0.067-0.051,0.119-0.098,0.153-0.168c-0.038-0.021-0.067-0.047-0.091-0.082
					c-0.091-0.133-0.033-0.347,0.005-0.5l0.005-0.03c-0.091-0.24-0.319-0.337-0.563-0.438c-0.3-0.128-0.647-0.275-0.695-0.729
					c0.009-0.128,0.086-0.174,0.138-0.199c-0.157-0.107-0.144-0.332-0.138-0.505c0.005-0.057,0.009-0.112,0.005-0.163
					c-0.029-0.036-0.072-0.066-0.115-0.098c-0.062-0.04-0.133-0.086-0.181-0.173c-0.005-0.011-0.005-0.021-0.005-0.031
					c-0.02-0.184,0.057-0.285,0.114-0.361c0.033-0.041,0.058-0.077,0.076-0.123c-0.029-0.035-0.057-0.076-0.091-0.117
					c-0.114-0.174-0.252-0.367-0.515-0.321c-0.077,0.01-0.144,0.066-0.216,0.127c-0.086,0.072-0.176,0.148-0.291,0.158
					c-0.576,0.046-0.997-0.469-1.148-0.979c-0.129-0.413-0.124-0.959,0.238-1.301c-0.177-0.193-0.271-0.479-0.258-0.79
					c0.015-0.367,0.157-0.699,0.377-0.893c-0.104-0.276-0.104-0.546-0.01-0.796c0.157-0.398,0.529-0.669,0.834-0.796
					c0.152-0.663,0.615-0.97,1.397-0.908c0.442-0.408,1.059-0.709,1.94-0.934c-0.023-0.25-0.058-0.562-0.091-0.816
					c0-0.025,0.005-0.051,0.02-0.066c0.014-0.015,0.037-0.025,0.057-0.021c0.124,0.016,0.181-0.092,0.267-0.26
					c0.076-0.153,0.162-0.321,0.339-0.378c0.02-0.005,0.048,0,0.062,0.016c0.1,0.087,0.181,0.204,0.262,0.316
					c0.096,0.138,0.187,0.265,0.286,0.311c0.028,0.011,0.048,0.046,0.038,0.087c-0.048,0.261-0.077,0.557-0.096,0.842
					c0.797,0.179,1.517,0.505,2.132,0.975c0.065-0.016,0.129-0.021,0.195-0.021c0.614,0,1.024,0.505,1.206,0.954
					c0.253,0.062,0.468,0.25,0.597,0.516c0.162,0.306,0.186,0.684,0.076,1.025c0.229,0.092,0.399,0.311,0.477,0.611
					c0.096,0.362,0.028,0.761-0.172,1.021c0.301,0.296,0.396,0.729,0.243,1.204c-0.225,0.679-0.872,1.163-1.421,1.041
					c-0.076-0.016-0.144-0.077-0.22-0.144c-0.086-0.061-0.172-0.138-0.233-0.138c-0.314,0-0.486,0.378-0.553,0.546
					c0.181,0.25,0.086,0.429,0,0.587c-0.043,0.076-0.086,0.163-0.102,0.26c-0.062,0.281-0.108,0.439-0.195,0.587
					c0.102,0.082,0.102,0.266,0.092,0.403v0.056c0,0.025-0.011,0.046-0.023,0.062c-0.12,0.097-0.248,0.184-0.377,0.266
					c-0.286,0.193-0.558,0.377-0.72,0.678c0.014,0.215-0.029,0.357-0.086,0.49c0.329,0.25,0.52,0.715,0.51,1.229
					c-0.01,0.5-0.205,0.942-0.524,1.188c0.152,0.188,0.19,0.453,0.102,0.698c0.071,0.185,0.367,0.331,0.634,0.47
					c0.319,0.157,0.615,0.315,0.648,0.557c0.01,0.105-0.033,0.219-0.14,0.326c0.14,0.111,0.14,0.347,0.134,0.524
					c0,0.058,0,0.107,0.006,0.153c0.139,0.061,0.237,0.173,0.267,0.326c0.034,0.168-0.019,0.347-0.138,0.479
					c0.143,0.215,0.28,0.413,0.571,0.444c0.187-0.188,0.4-0.286,0.624-0.286c0.458,0,0.944,0.424,1.126,0.988
					c0.152,0.466,0.062,0.914-0.248,1.216c0.195,0.198,0.311,0.51,0.281,0.862c-0.01,0.352-0.151,0.668-0.367,0.83
					c0.119,0.271,0.119,0.541,0.011,0.801c-0.14,0.357-0.479,0.664-0.873,0.791c-0.119,0.715-0.812,0.979-1.396,0.904
					c-0.463,0.434-1.105,0.754-1.965,0.974c0.005,0.071,0.014,0.144,0.019,0.22c0.016,0.209,0.034,0.423,0.092,0.576
					c0.02,0.025,0.015,0.057-0.005,0.076c-0.053,0.072-0.144,0.066-0.195,0.047c-0.015-0.006-0.028-0.006-0.038-0.006
					c-0.029,0.046-0.057,0.107-0.091,0.168c-0.085,0.18-0.176,0.357-0.367,0.455C30.843,45.943,30.838,45.948,30.823,45.948z"/>
				<path fill="#FFFFFF" stroke="#FFFFFF" stroke-width="0.5" stroke-linecap="round" stroke-linejoin="round" d="M28.068,40.625
					c-0.043,0.353,0.014,0.644,0.167,0.856c0.191,0.267,0.521,0.43,0.974,0.484c0.028,0.006,0.053,0.025,0.062,0.057
					c0.143,0.511,0.458,0.802,0.963,0.894c0.029-0.459-0.057-1.622-0.2-2.015c-0.014-0.031-0.043-0.066-0.071-0.104
					c-0.042-0.051-0.091-0.111-0.104-0.193c-0.023-0.193,0.042-0.434,0.119-0.684c0.028-0.117,0.057-0.23,0.085-0.342
					c0.12-0.566,0.172-1.057,0.196-1.796c-0.067-0.082-0.22-0.099-0.367-0.112c-0.081-0.005-0.167-0.016-0.243-0.031
					c-0.143,0.526-0.381,0.908-0.768,1.24c-0.105,0.088-0.229,0.158-0.349,0.225c-0.233,0.134-0.453,0.256-0.453,0.459
					c-0.005,0.107,0.096,0.205,0.139,0.209c0.062,0,0.096-0.041,0.143-0.111c0.062-0.092,0.158-0.209,0.324-0.168
					c0.077,0.016,0.139,0.061,0.177,0.133c0.058,0.111,0.066,0.28,0.009,0.459C28.759,40.433,28.315,40.59,28.068,40.625z"/>
				<path fill="#FFFFFF" stroke="#FFFFFF" stroke-width="0.5" stroke-linecap="round" stroke-linejoin="round" d="M31.363,37.683
					c-0.015,0.989,0.147,2.01,0.424,2.668c0.011,0.021,0.011,0.041,0,0.057c-0.262,0.709-0.334,1.551-0.386,2.499
					c0.524-0.106,0.758-0.53,0.92-0.929c0.01-0.024,0.033-0.045,0.062-0.045c0.329,0,0.581-0.104,0.753-0.302
					c0.215-0.235,0.318-0.592,0.31-1.041c-0.281-0.04-0.548-0.233-0.677-0.479c-0.096-0.203-0.091-0.424,0.02-0.621
					c0.01-0.016,0.028-0.031,0.043-0.031c0.058-0.016,0.101-0.025,0.144-0.025c0.195,0,0.276,0.129,0.344,0.229
					c0.023,0.036,0.043,0.071,0.076,0.103c0.043-0.025,0.057-0.062,0.062-0.086c0.033-0.117-0.07-0.312-0.123-0.379
					c-0.101-0.105-0.238-0.188-0.392-0.275c-0.182-0.102-0.391-0.219-0.544-0.396c-0.224-0.275-0.305-0.57-0.396-0.919
					c-0.016-0.034-0.023-0.075-0.033-0.112c-0.124,0.012-0.248,0.031-0.367,0.053C31.525,37.658,31.439,37.672,31.363,37.683z"/>
				<path fill="#FFFFFF" stroke="#FFFFFF" stroke-width="0.5" stroke-linecap="round" stroke-linejoin="round" d="M28.119,24.557
					c-0.028,0.031-0.043,0.066-0.043,0.112c-0.014,0.123,0.067,0.261,0.114,0.321c0.102,0.128,0.258,0.229,0.42,0.342
					c0.229,0.148,0.491,0.321,0.648,0.592c0.138,0.235,0.194,0.485,0.275,0.801c0,0.011,0,0.021,0,0.031
					c0,0.005,0.005,0.005,0.005,0.01c0.13-0.021,0.225-0.03,0.319-0.046c0.086-0.015,0.177-0.03,0.296-0.046
					c-0.053-0.877-0.109-1.974-0.424-2.663c-0.01-0.015-0.01-0.04,0-0.061c0.286-0.745,0.357-1.694,0.386-2.541
					c-0.404,0.082-0.663,0.353-0.854,0.898c-0.005,0.025-0.029,0.046-0.059,0.046c-0.743,0.061-1.105,0.52-1.101,1.397
					c0.343-0.021,0.677,0.357,0.734,0.699c0.038,0.198-0.029,0.352-0.183,0.413c-0.047,0.021-0.095,0.035-0.138,0.035
					c-0.143,0-0.214-0.112-0.267-0.204C28.205,24.623,28.177,24.573,28.119,24.557z"/>
				<path fill="#FFFFFF" stroke="#FFFFFF" stroke-width="0.5" stroke-linecap="round" stroke-linejoin="round" d="M31.285,26.653
					c0.077,0.031,0.182,0.041,0.277,0.057c0.1,0.01,0.19,0.021,0.281,0.051c0.01,0,0.015-0.005,0.019-0.005
					c0.102-0.367,0.21-0.648,0.436-0.913c0.172-0.204,0.396-0.342,0.586-0.465c0.134-0.081,0.263-0.163,0.349-0.25
					c0.104-0.102,0.205-0.275,0.195-0.397c-0.01-0.046-0.033-0.082-0.076-0.112c-0.119-0.021-0.152,0.021-0.205,0.103
					c-0.043,0.081-0.129,0.198-0.314,0.147c-0.114-0.03-0.19-0.112-0.21-0.24c-0.037-0.214,0.096-0.525,0.286-0.673
					c0.139-0.107,0.271-0.133,0.392-0.158c0.062-0.016,0.119-0.025,0.182-0.046c0.023-0.378-0.043-0.679-0.215-0.903
					c-0.238-0.321-0.658-0.428-0.949-0.459c-0.038,0-0.062-0.025-0.065-0.061c-0.092-0.521-0.481-0.878-0.982-0.894
					c0.033,0.256,0.043,0.516,0.057,0.766c0.02,0.454,0.039,0.883,0.167,1.255c0.015,0.046,0.038,0.076,0.066,0.117
					c0.043,0.057,0.091,0.128,0.104,0.22c0.021,0.188-0.052,0.408-0.118,0.633c-0.049,0.138-0.092,0.28-0.114,0.418
					C31.32,25.444,31.199,26.073,31.285,26.653z"/>
			</g>
		</g>
		<g>
			<path fill="#FFFFFF" d="M30.616,57.97l28.294-30.25l-0.795-0.51c-1.403-0.77-2.532,0.322-3.446-0.107
				c-0.695-0.33-1.445-0.984-1.445-0.984L30.588,50.136L8.615,26.325c0,0-0.479,0.363-1.309,0.725
				c-0.832,0.361-1.353,0.1-2.588,0.004c-1.238-0.096-2.187,0.619-2.187,0.619L30.616,57.97z"/>
			<path fill="#8DD7F7" stroke="#FFFFFF" stroke-miterlimit="10" d="M30.616,58.187l-0.1-0.108L2.314,27.652l0.137-0.104
				c0.04-0.029,1.003-0.746,2.278-0.646c0.355,0.027,0.648,0.066,0.911,0.102c0.659,0.094,1.108,0.123,1.614-0.096
				c0.803-0.35,1.272-0.707,1.276-0.709l0.102-0.076l0.085,0.092L30.588,49.92l22.628-24.008L53.314,26
				c0.006,0.006,0.744,0.645,1.416,0.963c0.314,0.146,0.75,0.074,1.223-0.033c0.334-0.076,0.683-0.154,1.062-0.154
				c0.418,0,0.799,0.098,1.17,0.299l0.957,0.615L30.616,58.187z M2.762,27.702l27.854,30.052l28.065-30.002l-0.639-0.41
				c-0.318-0.176-0.66-0.262-1.029-0.262c-0.353,0-0.683,0.076-1.002,0.148c-0.521,0.119-1.017,0.193-1.398,0.012
				c-0.563-0.266-1.149-0.729-1.381-0.918L30.586,50.351L8.596,26.52c-0.185,0.127-0.609,0.398-1.236,0.672
				c-0.555,0.238-1.057,0.215-1.756,0.115c-0.258-0.033-0.547-0.074-0.897-0.101C3.809,27.13,3.065,27.518,2.762,27.702z"/>
		</g>
		<g id="Left_Compass_2_">
			<g>
				<path fill="#8DD7F7" d="M33.271,7.943c0,0-5.339-2.672-5.193-2.57C28.221,5.474,4.24,50.103,4.24,50.103
					s15.984-24.585,16.814-25.326c0.83-0.742,1.716-0.441,1.716-0.441s5.951-9.521,6.038-9.65c0.752-1.104,1.822-0.98,1.822-0.98
					L33.271,7.943z"/>
			</g>
		</g>
		<g id="Right_Compass_2_">
			<g>
				<path fill="#8DD7F7" d="M32.888,6.676c-0.143-0.102-4.587,2.229-4.587,2.229l2.582,4.834c0,0,1.315-0.203,1.936,0.789
					l6.245,10.367c0,0,0.439-0.24,1.687,0.453c1.246,0.693,17.026,24.986,17.026,24.986L32.888,6.676z"/>
			</g>
		</g>
		<g id="Compass_Top_1_">
			<g>
				<path fill="#8DD7F7" d="M33.609,6.255c0.008,1.98-1.485,3.594-3.337,3.604c-1.854,0.008-3.359-1.592-3.37-3.572
					c-0.007-1.98,1.487-3.594,3.341-3.604C32.094,2.676,33.599,4.273,33.609,6.255z"/>
				<path fill="#8DD7F7" d="M30.255,10.316c-2.075,0-3.771-1.807-3.782-4.027c-0.007-2.23,1.684-4.051,3.766-4.062
					c2.095,0,3.79,1.807,3.798,4.027c0.009,2.23-1.679,4.053-3.765,4.062H30.255z M30.255,3.143
					c-1.626,0.008-2.932,1.416-2.924,3.143c0.007,1.717,1.318,3.117,2.924,3.117v0.457l0.015-0.457
					c1.611-0.008,2.919-1.418,2.911-3.143C33.173,4.541,31.862,3.143,30.255,3.143z"/>
			</g>
			<g>
				
					<ellipse transform="matrix(-0.004 -1 1 -0.004 24.1512 36.5989)" fill="#FFFFFF" cx="30.302" cy="6.272" rx="1.843" ry="1.724"/>
				<path fill="#FFFFFF" d="M30.303,8.27c-1.025,0-1.865-0.893-1.869-1.99c0-0.531,0.188-1.033,0.541-1.412
					c0.352-0.379,0.82-0.59,1.315-0.594c1.035,0,1.873,0.893,1.878,1.992c0.004,1.099-0.83,2-1.859,2.004H30.303z M30.303,4.581
					c-0.431,0.002-0.828,0.18-1.125,0.502c-0.297,0.32-0.459,0.744-0.458,1.197c0.002,0.928,0.711,1.684,1.583,1.684v0.152
					l0.005-0.152c0.874-0.004,1.579-0.766,1.573-1.697C31.877,5.335,31.17,4.581,30.303,4.581z"/>
			</g>
		</g>
	</g>
</g>
<g id="Logo_1_">
</g>
<g id="Square_down_buttons">
</g>
<g id="Cube">
</g>
<g id="Vajra_Grid">
</g>
</svg>
