<?xml version="1.0" encoding="utf-8"?>
<!-- Generator: Adobe Illustrator 16.0.0, SVG Export Plug-In . SVG Version: 6.00 Build 0)  -->
<!DOCTYPE svg PUBLIC "-//W3C//DTD SVG 1.1//EN" "http://www.w3.org/Graphics/SVG/1.1/DTD/svg11.dtd">
<svg version="1.1" xmlns="http://www.w3.org/2000/svg" xmlns:xlink="http://www.w3.org/1999/xlink" x="0px" y="0px"
	 width="82.074px" height="48.434px" viewBox="0 0 82.074 48.434" enable-background="new 0 0 82.074 48.434" xml:space="preserve">
<g id="Mini_logo">
</g>
<g id="Container">
</g>
<g id="Logo_1_">
</g>
<g id="Square_down_buttons">
	<path fill="#00528B" d="M1.617,4.298l39.539,42.656L80.991,4.37l-0.906-0.582c-0.453-0.25-0.938-0.371-1.46-0.371
		c-0.498,0-0.967,0.107-1.422,0.211c-0.74,0.168-1.441,0.273-1.986,0.016c-0.799-0.377-1.631-1.033-1.959-1.303L41.11,36.448
		L9.898,2.622C9.639,2.8,9.033,3.187,8.145,3.573c-0.788,0.34-1.5,0.305-2.492,0.164C5.286,3.69,4.875,3.632,4.38,3.593
		C3.104,3.489,2.049,4.036,1.617,4.298z"/>
</g>
<g id="Cube">
</g>
<g id="Vajra_Grid">
</g>
</svg>
