<?xml version="1.0" encoding="utf-8"?>
<!-- Generator: Adobe Illustrator 16.0.0, SVG Export Plug-In . SVG Version: 6.00 Build 0)  -->
<!DOCTYPE svg PUBLIC "-//W3C//DTD SVG 1.1//EN" "http://www.w3.org/Graphics/SVG/1.1/DTD/svg11.dtd">
<svg version="1.1" xmlns="http://www.w3.org/2000/svg" xmlns:xlink="http://www.w3.org/1999/xlink" x="0px" y="0px"
	 width="401.545px" height="375.493px" viewBox="0 0 401.545 375.493" enable-background="new 0 0 401.545 375.493"
	 xml:space="preserve">
<g id="Mini_logo">
</g>
<g id="Container">
	<g>
		<g>
			<polygon fill="none" points="47.335,186.305 66.418,204.697 200.864,207.057 			"/>
			<polygon fill="none" points="303.441,130.045 284.417,127.311 200.864,207.057 			"/>
			<polygon fill="none" points="361.919,178.361 392.05,149.32 200.864,207.057 			"/>
			<polygon fill="none" points="278.947,126.525 263.908,124.365 200.864,207.057 			"/>
			<polygon fill="none" points="388.776,142.305 347.525,136.377 200.864,207.057 			"/>
			<polygon fill="none" points="223.04,46.929 203.924,8.634 200.864,207.057 			"/>
			<polygon fill="none" points="239.613,80.131 227.752,56.369 200.864,207.057 			"/>
			<polygon fill="none" points="251.384,103.71 242.835,86.584 200.864,207.057 			"/>
			<polygon fill="none" points="260.565,122.104 253.827,108.604 200.864,207.057 			"/>
			<polygon fill="none" points="312.006,312.395 307.523,286.557 200.864,207.057 			"/>
			<polygon fill="none" points="306.295,279.471 303.058,260.811 200.864,207.057 			"/>
			<polygon fill="none" points="320.831,363.273 313.797,322.721 200.864,207.057 			"/>
			<polygon fill="none" points="302.123,255.424 299.567,240.688 200.864,207.057 			"/>
			<polygon fill="none" points="315.999,222.617 329.799,209.318 200.864,207.057 			"/>
			<polygon fill="none" points="335.068,204.24 354.207,185.793 200.864,207.057 			"/>
			<polygon fill="none" points="301.123,236.955 312.007,226.465 200.864,207.057 			"/>
			<polygon fill="none" points="93.265,287.84 88.709,314.102 200.864,207.057 			"/>
			<polygon fill="none" points="53.034,136.441 11.243,142.445 200.864,207.057 			"/>
			<polygon fill="none" points="9.718,150.053 39.656,178.906 200.864,207.057 			"/>
			<polygon fill="none" points="197.196,8.413 178.084,46.701 200.864,207.057 			"/>
			<polygon fill="none" points="101.329,241.355 98.741,256.271 200.864,207.057 			"/>
			<polygon fill="none" points="116.711,127.295 97.549,130.047 200.864,207.057 			"/>
			<polygon fill="none" points="71.679,209.768 85.47,223.059 200.864,207.057 			"/>
			<polygon fill="none" points="89.462,226.906 100.358,237.408 200.864,207.057 			"/>
			<polygon fill="none" points="90.271,131.094 63.707,134.908 200.864,207.057 			"/>
			<polygon fill="none" points="158.319,86.295 149.764,103.437 200.864,207.057 			"/>
			<polygon fill="none" points="147.315,108.34 140.559,121.877 200.864,207.057 			"/>
			<polygon fill="none" points="173.386,56.113 161.54,79.843 200.864,207.057 			"/>
			<polygon fill="none" points="137.337,124.332 122.216,126.504 200.864,207.057 			"/>
			<polygon fill="none" points="278.547,350.258 316.057,369.756 200.864,207.057 			"/>
			<polygon fill="none" points="97.794,261.729 94.512,280.65 200.864,207.057 			"/>
			<polygon fill="none" points="336.971,134.861 310.659,131.082 200.864,207.057 			"/>
			<polygon fill="none" points="185.577,317.451 199.032,310.457 200.864,207.057 			"/>
			<polygon fill="none" points="163.69,328.828 180.718,319.977 200.864,207.057 			"/>
			<polygon fill="none" points="78.511,372.887 78.47,373.125 78.685,373.014 			"/>
			<polygon fill="none" points="133.729,344.402 157.284,332.158 200.864,207.057 			"/>
			<polygon fill="none" points="3.048,143.623 3.321,143.887 3.422,143.57 			"/>
			<polygon fill="none" points="87.433,368.467 124.362,349.271 200.864,207.057 			"/>
			<polygon fill="none" points="203.074,311.027 216.639,318.078 200.864,207.057 			"/>
			<polygon fill="none" points="245.213,332.932 269.052,345.322 200.864,207.057 			"/>
			<polygon fill="none" points="221.541,320.627 238.736,329.564 200.864,207.057 			"/>
			<polygon fill="none" points="86.886,324.607 79.712,365.967 200.864,207.057 			"/>
			<polygon fill="#FFFAC2" points="203.924,8.634 200.505,1.784 197.196,8.413 200.864,207.057 			"/>
			<polygon fill="#FFFAC2" points="178.084,46.701 173.386,56.113 200.864,207.057 			"/>
			<polygon fill="#FFFAC2" points="161.54,79.843 158.319,86.295 200.864,207.057 			"/>
			<polygon fill="#FFFAC2" points="149.764,103.437 147.315,108.34 200.864,207.057 			"/>
			<polygon fill="#FFFAC2" points="140.559,121.877 139.487,124.021 137.337,124.332 200.864,207.057 			"/>
			<polygon fill="#FFFAC2" points="122.216,126.504 116.711,127.295 200.864,207.057 			"/>
			<polygon fill="#FFFAC2" points="97.549,130.047 90.271,131.094 200.864,207.057 			"/>
			<polygon fill="#FFFAC2" points="63.707,134.908 53.034,136.441 200.864,207.057 			"/>
			<polygon fill="#FFFAC2" points="11.243,142.445 3.422,143.57 3.321,143.887 9.718,150.053 200.864,207.057 			"/>
			<polygon fill="#FFFAC2" points="39.656,178.906 47.335,186.305 200.864,207.057 			"/>
			<polygon fill="#FFFAC2" points="66.418,204.697 71.679,209.768 200.864,207.057 			"/>
			<polygon fill="#FFFAC2" points="85.47,223.059 89.462,226.906 200.864,207.057 			"/>
			<polygon fill="#FFFAC2" points="100.358,237.408 101.776,238.773 101.329,241.355 200.864,207.057 			"/>
			<polygon fill="#FFFAC2" points="98.741,256.271 97.794,261.729 200.864,207.057 			"/>
			<polygon fill="#FFFAC2" points="94.512,280.65 93.265,287.84 200.864,207.057 			"/>
			<polygon fill="#FFFAC2" points="88.709,314.102 86.886,324.607 200.864,207.057 			"/>
			<polygon fill="#FFFAC2" points="87.433,368.467 200.864,207.057 79.712,365.967 78.511,372.887 78.685,373.014 			"/>
			<polygon fill="#FFFAC2" points="124.362,349.271 133.729,344.402 200.864,207.057 			"/>
			<polygon fill="#FFFAC2" points="157.284,332.158 163.69,328.828 200.864,207.057 			"/>
			<polygon fill="#FFFAC2" points="180.718,319.977 185.577,317.451 200.864,207.057 			"/>
			<polygon fill="#FFFAC2" points="199.032,310.457 200.505,309.691 203.074,311.027 200.864,207.057 			"/>
			<polygon fill="#FFFAC2" points="216.639,318.078 221.541,320.627 200.864,207.057 			"/>
			<polygon fill="#FFFAC2" points="238.736,329.564 245.213,332.932 200.864,207.057 			"/>
			<polygon fill="#FFFAC2" points="269.052,345.322 278.547,350.258 200.864,207.057 			"/>
			<polygon fill="#FFFAC2" points="316.057,369.756 322.54,373.125 320.831,363.273 200.864,207.057 			"/>
			<polygon fill="#FFFAC2" points="313.797,322.721 312.006,312.395 200.864,207.057 			"/>
			<polygon fill="#FFFAC2" points="307.523,286.557 306.295,279.471 200.864,207.057 			"/>
			<polygon fill="#FFFAC2" points="303.058,260.811 302.123,255.424 200.864,207.057 			"/>
			<polygon fill="#FFFAC2" points="299.567,240.688 299.235,238.773 301.123,236.955 200.864,207.057 			"/>
			<polygon fill="#FFFAC2" points="312.007,226.465 315.999,222.617 200.864,207.057 			"/>
			<polygon fill="#FFFAC2" points="329.799,209.318 335.068,204.24 200.864,207.057 			"/>
			<polygon fill="#FFFAC2" points="354.207,185.793 361.919,178.361 200.864,207.057 			"/>
			<polygon fill="#FFFAC2" points="392.05,149.32 397.962,143.623 388.776,142.305 200.864,207.057 			"/>
			<polygon fill="#FFFAC2" points="347.525,136.377 336.971,134.861 200.864,207.057 			"/>
			<polygon fill="#FFFAC2" points="310.659,131.082 303.441,130.045 200.864,207.057 			"/>
			<polygon fill="#FFFAC2" points="284.417,127.311 278.947,126.525 200.864,207.057 			"/>
			<polygon fill="#FFFAC2" points="263.908,124.365 261.523,124.021 260.565,122.104 200.864,207.057 			"/>
			<polygon fill="#FFFAC2" points="253.827,108.604 251.384,103.71 200.864,207.057 			"/>
			<polygon fill="#FFFAC2" points="242.835,86.584 239.613,80.131 200.864,207.057 			"/>
			<polygon fill="#FFFAC2" points="227.752,56.369 223.04,46.929 200.864,207.057 			"/>
		</g>
		<g id="Outer_Ring_2_">
			<path fill="#00528B" stroke="#010101" stroke-width="2" stroke-linecap="round" stroke-linejoin="round" d="M200.162,80.332
				c-79.212,0-143.425,64.213-143.425,143.424s64.213,143.426,143.425,143.426s143.427-64.215,143.427-143.426
				S279.374,80.332,200.162,80.332z M200.162,337.666c-62.909,0-113.907-51.002-113.907-113.91S137.253,109.85,200.162,109.85
				c62.91,0,113.908,50.998,113.908,113.906S263.072,337.666,200.162,337.666z"/>
			<path fill="#FBCC34" stroke="#010101" stroke-width="2" stroke-linecap="round" stroke-linejoin="round" d="M200.162,83.416
				c-77.509,0-140.341,62.832-140.341,140.34S122.653,364.1,200.162,364.1c77.51,0,140.342-62.836,140.342-140.344
				S277.672,83.416,200.162,83.416z M200.162,341.189c-64.855,0-117.432-52.576-117.432-117.434
				c0-64.855,52.576-117.432,117.432-117.432c64.856,0,117.434,52.576,117.434,117.432
				C317.596,288.613,265.019,341.189,200.162,341.189z"/>
			<g>
				<path fill="#00528B" d="M169.806,355.594c-0.426,0.543-0.923,0.994-1.492,1.355c-0.57,0.361-1.197,0.627-1.881,0.797
					s-1.379,0.221-2.088,0.148c-0.166-0.01-0.371-0.045-0.615-0.104c-0.244-0.061-0.514-0.133-0.807-0.217
					c-0.295-0.084-0.604-0.176-0.93-0.277c-0.326-0.102-0.643-0.207-0.949-0.312c-0.237-0.086-0.459-0.158-0.667-0.217
					c-0.207-0.059-0.38-0.109-0.519-0.148l-3.526-1.002l0.021-0.471c0.397-0.018,0.719-0.047,0.964-0.09
					c0.246-0.041,0.447-0.125,0.604-0.248c0.156-0.125,0.285-0.312,0.385-0.564s0.211-0.594,0.334-1.025l4.068-14.314
					c0.073-0.26,0.106-0.475,0.099-0.645c-0.007-0.17-0.048-0.309-0.12-0.412c-0.074-0.105-0.164-0.182-0.271-0.232
					c-0.107-0.049-0.211-0.096-0.309-0.143c-0.216-0.1-0.408-0.195-0.576-0.291c-0.17-0.094-0.297-0.256-0.381-0.486
					c-0.062-0.111-0.042-0.199,0.061-0.264c0.103-0.062,0.221-0.066,0.354-0.012c0.433,0.254,0.899,0.453,1.4,0.596
					c0.346,0.098,0.695,0.184,1.049,0.256s0.716,0.143,1.089,0.211c0.355,0.064,0.714,0.133,1.076,0.207
					c0.361,0.076,0.741,0.17,1.14,0.283c0.604,0.172,1.207,0.432,1.81,0.779c0.602,0.35,1.116,0.771,1.546,1.268
					c0.429,0.494,0.742,1.051,0.941,1.668c0.197,0.617,0.196,1.279-0.006,1.988c-0.117,0.416-0.297,0.799-0.537,1.15
					c-0.24,0.354-0.52,0.68-0.838,0.98c-0.32,0.303-0.665,0.578-1.035,0.828c-0.369,0.25-0.74,0.471-1.113,0.664
					c0.533,0.357,1.008,0.777,1.422,1.26c0.414,0.48,0.743,1,0.987,1.555c0.243,0.557,0.39,1.145,0.438,1.764
					c0.048,0.621-0.02,1.252-0.201,1.891C170.539,354.443,170.23,355.051,169.806,355.594z M168.087,352.273
					c-0.013-0.516-0.094-1.021-0.243-1.512c-0.15-0.49-0.363-0.959-0.64-1.4c-0.275-0.443-0.6-0.83-0.973-1.16
					c-0.356-0.326-0.801-0.586-1.332-0.785c-0.533-0.197-1.041-0.365-1.525-0.504l-1.99,7.002c-0.083,0.295-0.072,0.582,0.035,0.865
					c0.105,0.283,0.265,0.547,0.475,0.793c0.211,0.248,0.455,0.457,0.732,0.629s0.537,0.293,0.78,0.361
					c0.501,0.143,0.991,0.176,1.472,0.098c0.48-0.08,0.92-0.248,1.322-0.508c0.4-0.26,0.746-0.592,1.039-0.994
					c0.291-0.402,0.509-0.855,0.651-1.355C168.032,353.301,168.098,352.791,168.087,352.273z M169.151,341.969
					c-0.021-0.455-0.11-0.877-0.27-1.268c-0.16-0.391-0.398-0.734-0.717-1.031c-0.318-0.295-0.709-0.51-1.176-0.643
					c-0.45-0.127-0.883-0.186-1.297-0.172l-1.932,6.795c0.623,0.176,1.201,0.295,1.736,0.352c0.533,0.059,1.028,0.014,1.482-0.139
					c0.453-0.15,0.85-0.426,1.188-0.826c0.338-0.398,0.609-0.961,0.816-1.688C169.116,342.883,169.172,342.424,169.151,341.969z"/>
				<path fill="#00528B" d="M181.436,359.838l-0.23,0.07c-0.112,0.018-0.319,0-0.62-0.051c-0.302-0.053-0.624-0.111-0.969-0.18
					c-0.344-0.066-0.67-0.133-0.979-0.193c-0.309-0.062-0.524-0.104-0.648-0.125c-0.283-0.049-0.568-0.092-0.853-0.131
					c-0.285-0.039-0.569-0.084-0.853-0.133c-0.639-0.109-1.276-0.213-1.916-0.312c-0.639-0.1-1.266-0.221-1.88-0.361
					c-0.157-0.045-0.218-0.143-0.183-0.291c0.034-0.148,0.131-0.211,0.291-0.184c0.498,0.068,0.854-0.031,1.062-0.297
					s0.354-0.637,0.436-1.115l1.859-10.896c0.051-0.301,0-0.514-0.15-0.641c-0.152-0.125-0.322-0.223-0.512-0.293
					c-0.136-0.059-0.275-0.119-0.42-0.18c-0.145-0.062-0.281-0.148-0.407-0.262c-0.13-0.094-0.159-0.191-0.087-0.289
					c0.07-0.096,0.186-0.131,0.346-0.104s0.367,0.066,0.622,0.119s0.542,0.105,0.862,0.16c0.51,0.105,1.066,0.215,1.666,0.326
					c0.602,0.111,1.212,0.221,1.832,0.326c0.886,0.15,1.694,0.271,2.428,0.359c0.732,0.088,1.229,0.109,1.493,0.062
					c0.13-0.014,0.234,0.014,0.314,0.082c0.079,0.066,0.103,0.145,0.07,0.23c-0.094,0.33-0.199,0.631-0.318,0.902
					s-0.239,0.543-0.357,0.814c-0.058,0.117-0.104,0.229-0.139,0.332c-0.036,0.104-0.081,0.205-0.135,0.305
					c-0.057,0.119-0.173,0.162-0.351,0.131c-0.177-0.029-0.263-0.117-0.256-0.262c0.033-0.305,0.004-0.555-0.09-0.754
					c-0.094-0.197-0.23-0.363-0.408-0.494c-0.179-0.129-0.389-0.234-0.631-0.312c-0.242-0.076-0.486-0.137-0.734-0.18
					c-0.143-0.023-0.28-0.043-0.414-0.057c-0.135-0.014-0.273-0.033-0.414-0.057c-0.125-0.021-0.258-0.039-0.401-0.055
					s-0.286-0.035-0.428-0.059l-0.478-0.082l-0.866,5.076l3.188,0.543c0.089,0.016,0.209,0.004,0.362-0.033
					c0.151-0.039,0.312-0.07,0.48-0.096l-0.026-0.006c0.153-0.045,0.299-0.121,0.436-0.227c0.136-0.104,0.261-0.164,0.373-0.182
					c0.13-0.014,0.229,0.016,0.299,0.092c0.068,0.076,0.087,0.156,0.054,0.242c-0.074,0.225-0.152,0.492-0.233,0.807
					s-0.158,0.584-0.233,0.809c-0.071,0.207-0.144,0.414-0.215,0.619c-0.072,0.207-0.146,0.432-0.225,0.674
					c-0.032,0.086-0.105,0.137-0.218,0.154s-0.206-0.018-0.283-0.104c-0.191-0.16-0.278-0.262-0.262-0.305
					c0.016-0.043,0.022-0.109,0.021-0.201c-0.026-0.168-0.059-0.328-0.096-0.48c-0.038-0.152-0.081-0.252-0.128-0.297
					c-0.076-0.084-0.244-0.172-0.502-0.262s-0.55-0.172-0.874-0.246c-0.325-0.072-0.647-0.137-0.966-0.191s-0.584-0.1-0.797-0.137
					l-0.346-0.059l-0.879,5.156c0.217,0.438,0.566,0.789,1.051,1.055c0.483,0.264,0.955,0.436,1.416,0.514
					c0.566,0.098,1.113,0.049,1.639-0.145c0.524-0.191,0.92-0.586,1.186-1.178c0.026-0.051,0.077-0.082,0.153-0.098
					c0.074-0.014,0.147-0.012,0.217,0.01s0.131,0.059,0.186,0.113s0.068,0.107,0.042,0.158L181.436,359.838z"/>
				<path fill="#00528B" d="M199.832,361.307c-0.433-0.004-0.873-0.016-1.321-0.039c-0.323-0.016-0.637-0.035-0.941-0.061
					c-0.306-0.023-0.618-0.053-0.94-0.086c-0.144-0.008-0.236-0.057-0.276-0.15c-0.04-0.092-0.004-0.18,0.107-0.264l0.258-0.285
					c-0.317-0.861-0.627-1.686-0.93-2.475s-0.621-1.615-0.956-2.477l-4.335-0.217c-0.158,0.279-0.338,0.641-0.539,1.08
					c-0.202,0.439-0.404,0.879-0.606,1.318c-0.202,0.441-0.371,0.85-0.507,1.23s-0.208,0.65-0.216,0.812
					c-0.01,0.197,0.101,0.334,0.331,0.408c0.229,0.074,0.434,0.135,0.611,0.178c0.179,0.027,0.26,0.117,0.243,0.27
					s-0.115,0.223-0.294,0.215l-4.735-0.318l0.133-0.479c0.176,0.062,0.365,0.064,0.566,0.002s0.395-0.166,0.582-0.309
					c0.187-0.145,0.362-0.311,0.524-0.5s0.292-0.363,0.391-0.521c0.401-0.844,0.818-1.709,1.249-2.596
					c0.432-0.887,0.848-1.752,1.25-2.596c0.584-1.25,1.173-2.488,1.765-3.719s1.189-2.459,1.79-3.689
					c0.078-0.121,0.215-0.15,0.409-0.088c0.123,0.061,0.243,0.184,0.359,0.369c0.117,0.186,0.232,0.395,0.347,0.625
					s0.22,0.475,0.314,0.73c0.096,0.258,0.183,0.486,0.263,0.688l0.002-0.025c0.047,0.127,0.086,0.242,0.117,0.342
					c0.031,0.102,0.063,0.18,0.097,0.234l0.001-0.027l1.047,2.834c0.491,1.32,0.987,2.652,1.487,4
					c0.499,1.348,1.06,2.658,1.68,3.932c0.195,0.424,0.478,0.707,0.849,0.852c0.37,0.145,0.752,0.244,1.146,0.301l-0.024,0.484
					C200.695,361.305,200.264,361.311,199.832,361.307z M192.908,349.678c-0.345,0.775-0.656,1.512-0.934,2.209
					c-0.278,0.697-0.607,1.439-0.988,2.23l3.419,0.17L192.908,349.678z"/>
				<path fill="#00528B" d="M215.539,346.477c-0.269,0.162-0.39,0.422-0.364,0.781l0.52,7.449c0.063,0.914-0.049,1.756-0.338,2.523
					s-0.706,1.438-1.252,2.006c-0.546,0.57-1.203,1.025-1.972,1.367c-0.77,0.342-1.593,0.543-2.472,0.605
					c-0.717,0.049-1.481,0.008-2.292-0.125s-1.565-0.367-2.265-0.707c-0.699-0.338-1.29-0.787-1.77-1.348
					c-0.481-0.562-0.749-1.246-0.806-2.053l0.002,0.027c-0.012-0.162-0.035-0.312-0.072-0.455c-0.037-0.141-0.06-0.266-0.066-0.373
					l-0.556-7.961c-0.031-0.447-0.162-0.709-0.393-0.783s-0.453-0.113-0.67-0.115c-0.218-0.021-0.403-0.035-0.557-0.043
					c-0.154-0.006-0.256-0.107-0.305-0.303c-0.049-0.176,0.053-0.273,0.304-0.291l0.834-0.059c1.47-0.102,2.952-0.152,4.448-0.148
					c0.163,0.008,0.249,0.082,0.259,0.227c0.009,0.125-0.066,0.203-0.227,0.23c-0.356,0.062-0.656,0.16-0.898,0.293
					c-0.243,0.135-0.351,0.398-0.323,0.793l0.294,4.223c0.051,0.717,0.096,1.43,0.136,2.139c0.041,0.709,0.085,1.412,0.134,2.111
					c0.044,0.629,0.208,1.172,0.492,1.629s0.644,0.832,1.078,1.127c0.436,0.293,0.923,0.504,1.463,0.627
					c0.54,0.125,1.097,0.168,1.671,0.127c0.573-0.039,1.128-0.164,1.663-0.373c0.535-0.207,1.001-0.492,1.399-0.854
					s0.706-0.793,0.924-1.295c0.217-0.5,0.303-1.074,0.258-1.721c-0.047-0.68-0.096-1.371-0.145-2.07s-0.106-1.396-0.173-2.096
					c-0.065-0.68-0.122-1.369-0.171-2.068s-0.098-1.398-0.146-2.098c-0.016-0.215-0.059-0.383-0.13-0.504
					c-0.072-0.121-0.154-0.211-0.248-0.268c-0.095-0.057-0.2-0.09-0.318-0.1s-0.23-0.02-0.34-0.029
					c-0.198-0.004-0.384-0.014-0.556-0.029c-0.173-0.016-0.283-0.119-0.333-0.314c-0.049-0.176,0.053-0.273,0.304-0.291
					c0.808-0.057,1.605-0.104,2.396-0.141s1.582-0.057,2.374-0.057l0.06,0.455C216.092,346.203,215.807,346.312,215.539,346.477z"/>
				<path fill="#00528B" d="M231.46,345.201c-0.01,0.131-0.103,0.215-0.278,0.25c-0.158,0.033-0.269-0.008-0.329-0.125
					c-0.251-0.59-0.618-0.922-1.102-0.996s-1.007-0.053-1.57,0.064c-0.141,0.029-0.281,0.059-0.422,0.088
					c-0.142,0.029-0.288,0.07-0.443,0.119c-0.154,0.051-0.32,0.096-0.496,0.131c-0.176,0.037-0.353,0.074-0.527,0.109
					c-0.142,0.029-0.223,0.057-0.246,0.08c-0.022,0.021-0.1,0.029-0.229,0.02l2.27,10.928c0.011,0.053,0.045,0.152,0.103,0.295
					c0.058,0.145,0.117,0.297,0.178,0.459c0.062,0.162,0.123,0.305,0.186,0.43s0.113,0.193,0.152,0.203l0.026-0.006
					c0.078,0.021,0.193,0.023,0.347,0.01s0.284-0.021,0.394-0.025c0.197-0.023,0.383-0.035,0.558-0.033
					c0.175,0,0.312,0.062,0.411,0.189c0.071,0.076,0.088,0.156,0.05,0.236c-0.038,0.082-0.128,0.137-0.269,0.166
					c-0.897,0.188-1.793,0.363-2.685,0.531c-0.893,0.166-1.791,0.326-2.696,0.477c-0.158,0.033-0.256-0.02-0.294-0.158
					s0.019-0.242,0.169-0.311c0.257-0.09,0.469-0.176,0.636-0.256c0.166-0.08,0.283-0.184,0.35-0.307
					c0.065-0.125,0.097-0.283,0.094-0.475s-0.037-0.447-0.104-0.764l-2.308-11.111l-3.353,0.695
					c-0.388,0.08-0.718,0.277-0.992,0.592s-0.472,0.668-0.593,1.059c-0.048,0.121-0.145,0.188-0.289,0.199s-0.245-0.033-0.302-0.131
					c-0.029-0.049-0.062-0.162-0.098-0.338c-0.048-0.229-0.059-0.502-0.033-0.818c0.026-0.318,0.056-0.617,0.089-0.9
					c0.017-0.096,0.027-0.197,0.032-0.309c0.004-0.111,0.013-0.223,0.026-0.336c0.017-0.096,0.066-0.166,0.149-0.211
					c0.082-0.045,0.171-0.059,0.267-0.041c0.081,0.037,0.21,0.062,0.387,0.07c0.176,0.01,0.355,0.014,0.539,0.012
					c0.183,0,0.361-0.006,0.534-0.014c0.172-0.008,0.312-0.023,0.417-0.045l9.423-1.957c0.088-0.02,0.199-0.061,0.333-0.125
					c0.133-0.064,0.267-0.129,0.4-0.193l-0.026,0.006c0.045-0.047,0.11-0.082,0.197-0.109c0.086-0.027,0.18-0.061,0.282-0.1
					c0.221-0.084,0.352-0.027,0.393,0.166l0.087,0.422C231.403,343.734,231.472,344.465,231.46,345.201z"/>
				<path fill="#00528B" d="M246.497,338.49c-0.299,0.479-0.596,1.039-0.892,1.688c-0.296,0.646-0.578,1.332-0.847,2.057
					c-0.27,0.725-0.495,1.422-0.676,2.096c-0.182,0.676-0.305,1.285-0.369,1.832s-0.046,0.965,0.056,1.252l1.426,4.043
					c0.173,0.492,0.459,0.748,0.857,0.77c0.397,0.021,0.806-0.051,1.224-0.217c0.169-0.061,0.288-0.021,0.356,0.117
					c0.067,0.139,0.02,0.246-0.144,0.322c-0.48,0.207-0.958,0.404-1.436,0.592c-0.477,0.188-0.962,0.367-1.453,0.541
					c-0.39,0.137-0.782,0.266-1.179,0.387c-0.396,0.121-0.795,0.205-1.197,0.25l0.025-0.494c0.057,0,0.152-0.025,0.289-0.074
					c0.254-0.088,0.394-0.271,0.421-0.547c0.026-0.277-0.008-0.551-0.104-0.822l-1.336-3.787c-0.084-0.238-0.331-0.547-0.741-0.926
					s-0.912-0.789-1.505-1.227c-0.593-0.439-1.238-0.879-1.937-1.318s-1.371-0.832-2.016-1.176
					c-0.646-0.344-1.233-0.619-1.763-0.822c-0.529-0.205-0.913-0.293-1.151-0.266c-0.164,0.02-0.259-0.033-0.284-0.158
					c-0.024-0.123,0.036-0.221,0.183-0.293c0.7-0.285,1.398-0.559,2.097-0.824c0.697-0.266,1.401-0.523,2.113-0.773
					c0.136-0.049,0.244-0.039,0.325,0.027c0.08,0.066,0.085,0.16,0.013,0.281c-0.028,0.029-0.08,0.096-0.158,0.199
					c-0.039,0.053-0.079,0.113-0.12,0.186c-0.042,0.072-0.051,0.141-0.026,0.209c0.035,0.102,0.253,0.326,0.65,0.67
					c0.398,0.346,0.874,0.736,1.428,1.17c0.553,0.434,1.132,0.873,1.736,1.316c0.604,0.445,1.131,0.816,1.58,1.115l0.302,0.209
					c0.051-0.342,0.118-0.703,0.203-1.086c0.084-0.383,0.18-0.746,0.288-1.088c0.042-0.205,0.133-0.486,0.275-0.842
					c0.097-0.318,0.202-0.666,0.318-1.041c0.115-0.373,0.219-0.744,0.31-1.109c0.09-0.365,0.155-0.693,0.195-0.984
					c0.041-0.289,0.037-0.502-0.011-0.639c-0.048-0.135-0.129-0.23-0.243-0.285c-0.115-0.055-0.241-0.088-0.377-0.096
					c-0.148,0.014-0.232-0.037-0.255-0.154c-0.021-0.115,0.041-0.209,0.188-0.279c0.327-0.154,0.643-0.285,0.948-0.393
					c0.321-0.113,0.644-0.227,0.966-0.34c0.339-0.121,0.68-0.234,1.021-0.346s0.686-0.219,1.03-0.322l0.229,0.406
					C247.074,337.684,246.796,338.014,246.497,338.49z"/>
			</g>
			<g>
				<path fill="#00528B" d="M285.235,135.119c-0.713,0.193-1.448,0.25-2.205,0.172c-0.758-0.08-1.497-0.275-2.217-0.588
					c-0.721-0.312-1.335-0.695-1.845-1.148c-0.249-0.221-0.485-0.48-0.711-0.775c-0.225-0.297-0.395-0.607-0.509-0.932
					s-0.15-0.658-0.109-1.004c0.042-0.346,0.2-0.672,0.475-0.98c0.168-0.189,0.344-0.352,0.527-0.484
					c0.184-0.135,0.372-0.264,0.567-0.387c0.14-0.109,0.271-0.211,0.396-0.303c0.123-0.09,0.239-0.174,0.348-0.246
					c0.054-0.037,0.109-0.047,0.167-0.027s0.109,0.049,0.157,0.092c0.059,0.053,0.096,0.107,0.11,0.162
					c0.015,0.057,0,0.107-0.042,0.154l-0.271,0.268c-0.309,0.299-0.514,0.633-0.616,0.998s-0.12,0.736-0.053,1.115
					c0.066,0.377,0.2,0.74,0.4,1.088c0.199,0.348,0.454,0.658,0.762,0.934c0.272,0.242,0.593,0.443,0.962,0.602
					c0.368,0.158,0.748,0.25,1.137,0.279c0.39,0.027,0.769-0.018,1.138-0.135c0.37-0.117,0.691-0.328,0.966-0.637
					c0.264-0.297,0.456-0.656,0.578-1.078c0.121-0.424,0.195-0.883,0.223-1.379s0.024-1.023-0.008-1.584
					c-0.033-0.559-0.066-1.129-0.1-1.713l-0.016,0.018c-0.049-0.637-0.094-1.271-0.137-1.904c-0.042-0.631-0.041-1.236,0.005-1.811
					c0.045-0.576,0.143-1.109,0.294-1.602s0.39-0.922,0.717-1.289c0.485-0.545,1.059-0.873,1.721-0.984s1.337-0.088,2.026,0.068
					c0.688,0.156,1.352,0.412,1.99,0.768c0.639,0.357,1.183,0.734,1.634,1.135c0.628,0.559,1.146,1.158,1.554,1.797
					c0.073,0.109,0.073,0.205-0.001,0.287l-0.569,0.641c-0.284,0.318-0.589,0.637-0.913,0.953s-0.67,0.514-1.035,0.592
					c-0.112,0.006-0.205-0.045-0.279-0.152c-0.073-0.107-0.073-0.203,0.001-0.287c0.263-0.295,0.45-0.607,0.561-0.934
					c0.109-0.326,0.144-0.656,0.103-0.992c-0.042-0.334-0.146-0.654-0.309-0.959c-0.164-0.305-0.389-0.584-0.673-0.838
					c-0.272-0.242-0.572-0.424-0.899-0.545s-0.662-0.176-1.003-0.16c-0.343,0.014-0.675,0.096-0.997,0.242
					c-0.323,0.148-0.616,0.371-0.88,0.666c-0.274,0.309-0.468,0.656-0.579,1.045c-0.113,0.389-0.173,0.809-0.18,1.258
					c-0.008,0.449,0.022,0.918,0.09,1.402s0.133,0.979,0.195,1.48c0.091,0.59,0.17,1.18,0.238,1.771
					c0.067,0.592,0.087,1.166,0.058,1.725c-0.029,0.557-0.127,1.09-0.294,1.6s-0.44,0.979-0.819,1.404
					C286.559,134.545,285.949,134.926,285.235,135.119z"/>
				<path fill="#00528B" d="M301.534,138.762c-0.104,0.053-0.209,0.021-0.316-0.096c-0.097-0.105-0.115-0.207-0.056-0.305
					c0.332-0.459,0.415-0.889,0.251-1.287s-0.419-0.785-0.764-1.156c-0.086-0.094-0.173-0.188-0.259-0.279
					c-0.086-0.094-0.184-0.188-0.292-0.281s-0.217-0.199-0.325-0.314c-0.107-0.117-0.215-0.234-0.323-0.35
					c-0.086-0.094-0.144-0.143-0.171-0.15c-0.027-0.006-0.068-0.061-0.12-0.164l-7.225,6.693c-0.035,0.033-0.094,0.104-0.177,0.213
					c-0.083,0.107-0.171,0.223-0.266,0.342c-0.095,0.121-0.175,0.232-0.24,0.336c-0.065,0.105-0.094,0.174-0.083,0.207l0.016,0.018
					c0.02,0.068,0.069,0.158,0.149,0.268s0.146,0.205,0.2,0.285c0.106,0.139,0.199,0.273,0.279,0.406
					c0.078,0.133,0.093,0.264,0.043,0.396c-0.025,0.09-0.078,0.139-0.157,0.146c-0.078,0.008-0.161-0.035-0.247-0.127
					c-0.55-0.594-1.091-1.189-1.624-1.787c-0.532-0.6-1.062-1.205-1.588-1.82c-0.098-0.105-0.103-0.203-0.015-0.295
					c0.088-0.094,0.191-0.098,0.312-0.014c0.185,0.152,0.346,0.273,0.482,0.363s0.267,0.131,0.391,0.125
					c0.124-0.008,0.258-0.055,0.401-0.145s0.32-0.232,0.529-0.426l7.348-6.807l-2.053-2.217c-0.237-0.256-0.537-0.416-0.899-0.48
					s-0.72-0.053-1.07,0.035c-0.113,0.018-0.207-0.025-0.281-0.129c-0.075-0.104-0.088-0.199-0.04-0.287
					c0.024-0.045,0.095-0.121,0.211-0.229c0.151-0.141,0.353-0.273,0.604-0.398s0.491-0.238,0.72-0.342
					c0.08-0.031,0.163-0.07,0.249-0.117s0.175-0.092,0.266-0.133c0.08-0.031,0.155-0.025,0.227,0.018
					c0.071,0.041,0.122,0.102,0.153,0.182c0.008,0.078,0.049,0.188,0.122,0.324c0.073,0.139,0.152,0.275,0.237,0.414
					c0.084,0.137,0.169,0.27,0.254,0.396s0.16,0.225,0.225,0.295l5.771,6.23c0.054,0.059,0.136,0.123,0.245,0.195
					c0.109,0.07,0.219,0.143,0.328,0.213l-0.016-0.018c0.056,0.014,0.113,0.047,0.173,0.1s0.128,0.109,0.204,0.168
					c0.163,0.129,0.181,0.254,0.053,0.373l-0.279,0.258C302.616,138.053,302.097,138.436,301.534,138.762z"/>
				<path fill="#00528B" d="M301.784,157.326c-0.326-0.449-0.55-0.904-0.669-1.367c-0.12-0.461-0.172-0.924-0.155-1.387
					s0.078-0.93,0.188-1.4c0.108-0.473,0.229-0.941,0.359-1.408c0.123-0.424,0.234-0.838,0.332-1.242s0.161-0.803,0.189-1.195
					c0.034-0.359-0.051-0.725-0.252-1.096c-0.203-0.373-0.406-0.701-0.611-0.982c-0.074-0.104-0.121-0.174-0.137-0.209
					c-0.018-0.037-0.069-0.104-0.157-0.195l-2.54,1.846c-0.052,0.037-0.125,0.105-0.22,0.203c-0.095,0.1-0.194,0.205-0.297,0.32
					c-0.104,0.113-0.191,0.221-0.265,0.324c-0.073,0.102-0.106,0.17-0.101,0.205c0.002,0.057,0.031,0.123,0.087,0.201
					c0.065,0.09,0.115,0.172,0.149,0.244c0.07,0.125,0.141,0.256,0.21,0.391c0.069,0.137,0.103,0.283,0.101,0.443
					c0.023,0.139-0.018,0.219-0.122,0.234c-0.105,0.018-0.199-0.031-0.283-0.146c-0.476-0.654-0.946-1.307-1.41-1.961
					c-0.465-0.652-0.915-1.318-1.353-2.002c-0.071-0.123-0.061-0.225,0.031-0.301c0.091-0.076,0.191-0.066,0.302,0.031
					c0.174,0.186,0.322,0.328,0.442,0.428c0.121,0.098,0.243,0.15,0.367,0.16c0.123,0.008,0.266-0.033,0.428-0.121
					c0.161-0.088,0.363-0.221,0.607-0.396l7.813-5.68c0.308-0.223,0.444-0.426,0.411-0.607c-0.034-0.182-0.096-0.348-0.186-0.498
					s-0.159-0.285-0.208-0.406s-0.045-0.252,0.011-0.391c0.026-0.098,0.08-0.146,0.159-0.145c0.079,0,0.156,0.053,0.231,0.156
					l0.209,0.287c0.103,0.143,0.21,0.289,0.322,0.443c0.111,0.154,0.217,0.312,0.316,0.477c0.136,0.213,0.27,0.41,0.4,0.59
					c0.13,0.18,0.271,0.373,0.419,0.578l0.294,0.404c0.094,0.127,0.188,0.25,0.282,0.367s0.194,0.246,0.297,0.389
					c0.345,0.475,0.681,0.99,1.007,1.547s0.554,1.113,0.682,1.666c0.128,0.555,0.119,1.096-0.027,1.623
					c-0.146,0.527-0.514,1.006-1.104,1.434c-0.296,0.215-0.63,0.375-1.005,0.48c-0.374,0.105-0.759,0.17-1.154,0.191
					c-0.395,0.023-0.788,0.016-1.18-0.023s-0.762-0.1-1.113-0.178c-0.053,0.334-0.117,0.67-0.193,1.01s-0.16,0.689-0.251,1.049
					c-0.148,0.58-0.289,1.182-0.423,1.807c-0.133,0.627-0.218,1.238-0.256,1.834c-0.037,0.596-0.01,1.154,0.085,1.674
					c0.093,0.52,0.306,0.953,0.637,1.301l-0.243,0.354C302.68,158.342,302.194,157.891,301.784,157.326z M307.22,146.979
					c0.248-0.346,0.417-0.715,0.507-1.104s0.101-0.783,0.034-1.186c-0.067-0.402-0.23-0.783-0.492-1.143
					c-0.224-0.309-0.477-0.576-0.759-0.801l-4.638,3.369c0.133,0.238,0.279,0.479,0.438,0.727c0.16,0.246,0.319,0.479,0.478,0.697
					c0.457,0.627,0.994,0.963,1.612,1.004s1.254-0.176,1.908-0.652C306.668,147.631,306.972,147.326,307.22,146.979z"/>
				<path fill="#00528B" d="M308.006,166.93l-0.178-0.117c-0.075-0.066-0.18-0.217-0.314-0.449
					c-0.135-0.234-0.276-0.486-0.424-0.758s-0.288-0.531-0.42-0.775s-0.226-0.414-0.28-0.51c-0.127-0.221-0.258-0.438-0.392-0.654
					c-0.134-0.215-0.264-0.434-0.391-0.652c-0.285-0.494-0.574-0.988-0.866-1.479c-0.293-0.49-0.564-0.984-0.814-1.48
					c-0.058-0.131-0.025-0.227,0.095-0.287c0.121-0.061,0.217-0.029,0.288,0.094c0.235,0.377,0.503,0.562,0.801,0.555
					s0.633-0.117,1.004-0.332l8.447-4.877c0.233-0.135,0.35-0.289,0.351-0.463c0-0.174-0.03-0.346-0.09-0.512
					c-0.036-0.125-0.074-0.256-0.113-0.387c-0.04-0.133-0.058-0.275-0.053-0.424c-0.009-0.143,0.041-0.215,0.147-0.223
					c0.105-0.006,0.194,0.053,0.266,0.176c0.071,0.125,0.161,0.287,0.27,0.49c0.107,0.203,0.233,0.43,0.376,0.676
					c0.216,0.406,0.456,0.846,0.719,1.316s0.532,0.947,0.811,1.428c0.396,0.686,0.771,1.303,1.123,1.852
					c0.353,0.547,0.618,0.896,0.799,1.049c0.083,0.08,0.123,0.166,0.122,0.26c-0.002,0.092-0.041,0.15-0.117,0.178
					c-0.277,0.123-0.542,0.221-0.793,0.293c-0.251,0.07-0.503,0.143-0.754,0.215c-0.112,0.027-0.214,0.059-0.304,0.094
					c-0.091,0.033-0.185,0.061-0.283,0.08c-0.112,0.027-0.208-0.027-0.287-0.164s-0.068-0.244,0.034-0.322
					c0.226-0.148,0.379-0.311,0.461-0.486c0.082-0.174,0.117-0.359,0.105-0.555s-0.06-0.396-0.143-0.604
					c-0.084-0.209-0.181-0.408-0.292-0.602c-0.063-0.109-0.128-0.213-0.194-0.312s-0.132-0.203-0.195-0.314
					c-0.055-0.096-0.118-0.197-0.188-0.303s-0.137-0.213-0.2-0.324l-0.214-0.371l-3.936,2.273l1.427,2.471
					c0.04,0.07,0.115,0.145,0.228,0.227c0.111,0.082,0.223,0.174,0.336,0.273l-0.012-0.02c0.117,0.078,0.251,0.133,0.398,0.166
					c0.147,0.035,0.259,0.086,0.334,0.152c0.083,0.08,0.118,0.164,0.106,0.254c-0.013,0.09-0.058,0.146-0.134,0.174
					c-0.194,0.074-0.421,0.174-0.681,0.297c-0.259,0.121-0.485,0.221-0.68,0.295c-0.181,0.068-0.361,0.137-0.542,0.203
					c-0.181,0.068-0.376,0.145-0.584,0.227c-0.076,0.027-0.152,0.006-0.228-0.061s-0.104-0.15-0.089-0.25
					c0-0.221,0.021-0.338,0.059-0.35c0.038-0.014,0.088-0.047,0.148-0.1c0.1-0.113,0.19-0.225,0.273-0.336
					c0.082-0.111,0.125-0.195,0.129-0.254c0.015-0.1-0.02-0.264-0.104-0.488c-0.085-0.227-0.193-0.471-0.326-0.732
					c-0.134-0.262-0.271-0.516-0.414-0.764c-0.143-0.248-0.262-0.453-0.356-0.617l-0.154-0.27l-3.997,2.309
					c-0.176,0.395-0.217,0.83-0.124,1.307c0.092,0.479,0.241,0.895,0.448,1.252c0.253,0.439,0.594,0.785,1.021,1.031
					c0.427,0.248,0.916,0.297,1.469,0.143c0.049-0.012,0.1,0.006,0.152,0.049c0.052,0.043,0.091,0.094,0.115,0.152
					c0.025,0.059,0.034,0.123,0.027,0.191c-0.006,0.066-0.034,0.105-0.083,0.117L308.006,166.93z"/>
				<path fill="#00528B" d="M326.484,177.447c-0.071-0.125-0.142-0.225-0.209-0.299l0.01,0.021c-0.12-0.154-0.255-0.303-0.403-0.445
					c-0.149-0.143-0.304-0.178-0.464-0.107c-0.465,0.203-0.922,0.404-1.372,0.602c-0.436,0.191-0.875,0.395-1.318,0.605
					c-0.422,0.186-0.881,0.393-1.379,0.619c-0.497,0.229-0.95,0.432-1.356,0.609c-0.929,0.408-1.854,0.797-2.773,1.168
					c-0.921,0.369-1.857,0.711-2.811,1.027c-0.094,0.023-0.17-0.004-0.23-0.082c-0.06-0.076-0.087-0.168-0.082-0.275
					c0.505-2.162,1.133-4.27,1.885-6.324s1.525-4.088,2.321-6.1l0.01,0.021l0.612-1.621c-0.137,0.043-0.271,0.094-0.401,0.15
					s-0.269,0.119-0.414,0.182c-0.552,0.242-1.091,0.492-1.619,0.75c-0.527,0.26-1.061,0.523-1.6,0.795
					c-0.524,0.266-1.052,0.523-1.583,0.773s-1.072,0.498-1.624,0.74c-0.247,0.109-0.437,0.219-0.569,0.328
					c-0.134,0.111-0.22,0.223-0.257,0.334c-0.038,0.111-0.05,0.221-0.037,0.328c0.012,0.107,0.033,0.215,0.063,0.322
					c0.028,0.145,0.063,0.293,0.105,0.447s0.041,0.32-0.003,0.496c-0.007,0.141-0.063,0.209-0.17,0.205
					c-0.106-0.006-0.188-0.074-0.245-0.205c-0.095-0.252-0.202-0.508-0.324-0.768c-0.123-0.258-0.238-0.51-0.347-0.756l-0.335-0.764
					c-0.146-0.334-0.284-0.666-0.413-1c-0.13-0.332-0.225-0.668-0.286-1.004c-0.028-0.145,0.021-0.23,0.146-0.26
					c0.126-0.029,0.218,0.021,0.275,0.152l0.114,0.262c0.08,0.26,0.234,0.441,0.463,0.549c0.229,0.107,0.489,0.098,0.779-0.029
					l10.28-4.52c0.115-0.051,0.229-0.057,0.342-0.02c0.111,0.037,0.212,0.08,0.303,0.127c0.048,0.031,0.082,0.08,0.104,0.148
					c0.021,0.068,0.023,0.123,0.007,0.166c-0.805,2.346-1.628,4.682-2.467,7.01c-0.84,2.326-1.701,4.654-2.583,6.982
					c0.456-0.184,0.896-0.377,1.317-0.58s0.854-0.41,1.299-0.623c0.35-0.188,0.725-0.379,1.125-0.572s0.782-0.369,1.146-0.529
					c0.231-0.102,0.458-0.197,0.68-0.285c0.221-0.088,0.447-0.184,0.68-0.285l1.328-0.584c0.232-0.104,0.404-0.213,0.518-0.332
					c0.112-0.119,0.182-0.236,0.209-0.352s0.029-0.23,0.007-0.342c-0.023-0.111-0.05-0.221-0.08-0.328
					c-0.093-0.289-0.126-0.543-0.101-0.762c-0.001-0.121,0.052-0.178,0.157-0.172c0.106,0.004,0.186,0.064,0.236,0.182l0.366,0.773
					c0.251,0.531,0.48,1.062,0.688,1.596c0.208,0.531,0.412,1.066,0.612,1.602L326.484,177.447z"/>
				<path fill="#00528B" d="M324.788,195.078c-0.177-0.213-0.41-0.277-0.699-0.195l-4.184,1.205
					c-0.031,0.008-0.068,0.008-0.113-0.004c-0.045-0.014-0.079-0.031-0.103-0.059c-0.286-0.248-0.543-0.537-0.77-0.867
					c-0.228-0.33-0.428-0.682-0.601-1.053s-0.327-0.752-0.465-1.141c-0.137-0.391-0.258-0.768-0.363-1.133
					c-0.083-0.291-0.16-0.574-0.231-0.85c-0.071-0.277-0.142-0.562-0.209-0.855c-0.207-0.947-0.247-1.877-0.122-2.787
					c0.126-0.912,0.4-1.75,0.824-2.516c0.423-0.764,0.986-1.43,1.69-1.996c0.703-0.564,1.527-0.984,2.473-1.256
					c1.082-0.311,2.081-0.352,2.998-0.119c0.916,0.23,1.731,0.639,2.445,1.227c0.713,0.586,1.321,1.311,1.826,2.172
					c0.503,0.861,0.894,1.773,1.17,2.732c0.153,0.533,0.286,1.094,0.396,1.682c0.111,0.586,0.201,1.143,0.27,1.668
					c0.049,0.283,0.094,0.566,0.135,0.852c0.04,0.285,0.085,0.57,0.134,0.854c0.044,0.152,0.005,0.246-0.117,0.281
					c-0.106,0.029-0.31,0.084-0.609,0.162c-0.299,0.078-0.618,0.145-0.957,0.201s-0.655,0.09-0.949,0.1
					c-0.294,0.012-0.481-0.039-0.562-0.146c-0.053-0.068-0.078-0.143-0.077-0.227c0.001-0.082,0.035-0.15,0.103-0.203
					c0.462-0.23,0.82-0.533,1.077-0.902c0.256-0.371,0.434-0.773,0.532-1.205c0.098-0.434,0.128-0.889,0.09-1.363
					c-0.038-0.477-0.12-0.936-0.247-1.377c-0.216-0.748-0.535-1.443-0.96-2.088c-0.426-0.645-0.935-1.184-1.529-1.615
					s-1.257-0.723-1.985-0.877c-0.729-0.152-1.505-0.111-2.328,0.127c-0.899,0.258-1.665,0.68-2.297,1.266s-1.122,1.26-1.473,2.021
					c-0.351,0.76-0.557,1.578-0.618,2.455c-0.062,0.875,0.028,1.732,0.27,2.57c0.105,0.367,0.248,0.734,0.429,1.104
					s0.437,0.67,0.769,0.904l3.681-1.059c0.213-0.062,0.338-0.188,0.373-0.381c0.035-0.191,0.053-0.377,0.05-0.559
					c-0.021-0.242-0.016-0.482,0.015-0.723c0.011-0.135,0.074-0.201,0.189-0.201c0.115-0.002,0.193,0.066,0.232,0.205
					c0.22,0.762,0.432,1.514,0.637,2.254c0.205,0.742,0.399,1.49,0.584,2.246l-0.382,0.135
					C325.111,195.514,324.965,195.291,324.788,195.078z"/>
				<path fill="#00528B" d="M331.957,208.828c-0.114-0.014-0.185-0.1-0.21-0.256c-0.022-0.141,0.019-0.236,0.123-0.285
					c0.529-0.197,0.837-0.508,0.921-0.932s0.086-0.885,0.005-1.387c-0.021-0.125-0.041-0.25-0.062-0.375
					c-0.021-0.127-0.05-0.258-0.088-0.396c-0.039-0.139-0.07-0.285-0.096-0.441s-0.051-0.314-0.076-0.471
					c-0.021-0.125-0.04-0.197-0.06-0.219s-0.022-0.09-0.009-0.203l-9.723,1.574c-0.047,0.008-0.135,0.035-0.264,0.08
					c-0.13,0.045-0.267,0.092-0.412,0.139c-0.145,0.047-0.273,0.096-0.386,0.146s-0.174,0.092-0.185,0.127l0.004,0.023
					c-0.021,0.066-0.028,0.17-0.022,0.305s0.008,0.252,0.008,0.348c0.013,0.176,0.015,0.34,0.008,0.494
					c-0.008,0.152-0.068,0.271-0.184,0.354c-0.07,0.061-0.142,0.072-0.211,0.035c-0.07-0.037-0.116-0.117-0.136-0.244
					c-0.13-0.797-0.251-1.594-0.363-2.387s-0.218-1.592-0.315-2.395c-0.023-0.141,0.027-0.227,0.151-0.254s0.213,0.025,0.268,0.162
					c0.069,0.229,0.136,0.42,0.2,0.57c0.064,0.148,0.15,0.256,0.257,0.318c0.106,0.064,0.245,0.098,0.414,0.102
					c0.17,0.006,0.396-0.016,0.677-0.061l9.887-1.602l-0.482-2.982c-0.057-0.346-0.218-0.645-0.483-0.898
					c-0.267-0.254-0.569-0.441-0.911-0.562c-0.104-0.049-0.158-0.137-0.163-0.264c-0.005-0.129,0.038-0.215,0.127-0.262
					c0.044-0.023,0.145-0.047,0.302-0.072c0.203-0.033,0.444-0.033,0.723,0.002c0.279,0.035,0.542,0.074,0.79,0.113
					c0.083,0.02,0.174,0.033,0.271,0.041s0.196,0.02,0.295,0.037c0.084,0.018,0.144,0.064,0.18,0.139s0.045,0.154,0.026,0.236
					c-0.037,0.07-0.063,0.184-0.078,0.338c-0.015,0.156-0.025,0.314-0.031,0.477c-0.006,0.16-0.009,0.318-0.008,0.471
					c0,0.152,0.009,0.275,0.023,0.369l1.358,8.385c0.013,0.078,0.045,0.176,0.097,0.297s0.103,0.24,0.154,0.361l-0.003-0.023
					c0.038,0.041,0.068,0.1,0.089,0.178c0.021,0.076,0.046,0.162,0.077,0.252c0.063,0.199,0.01,0.312-0.162,0.34l-0.376,0.061
					C333.252,208.836,332.606,208.867,331.957,208.828z"/>
				<path fill="#00528B" d="M322.258,226.918c0.004-0.301-0.003-0.6-0.022-0.893s-0.035-0.58-0.046-0.867l-0.047-1.188
					c-0.011-0.27-0.016-0.611-0.017-1.023c0-0.412,0.051-0.732,0.153-0.959l0.391,0.248c-0.059,0.129-0.087,0.217-0.085,0.264
					c0.005,0.127,0.061,0.232,0.167,0.316c0.106,0.082,0.24,0.148,0.4,0.197c0.161,0.049,0.325,0.084,0.492,0.1
					c0.167,0.018,0.314,0.023,0.441,0.02l4.73-0.186l-0.306-7.797l-4.683,0.184c-0.603,0.023-1.011,0.143-1.225,0.357
					s-0.293,0.621-0.237,1.223l-0.427,0.041c-0.032-0.412-0.061-0.811-0.083-1.199c-0.023-0.389-0.043-0.779-0.059-1.176
					c-0.016-0.412-0.028-0.816-0.035-1.213c-0.008-0.396-0.012-0.801-0.012-1.215c-0.007-0.158,0.054-0.248,0.18-0.268
					c0.126-0.021,0.208,0.047,0.246,0.205c0.058,0.25,0.108,0.451,0.154,0.6s0.121,0.262,0.228,0.336
					c0.106,0.076,0.247,0.123,0.422,0.139c0.176,0.018,0.414,0.02,0.715,0.008l9.651-0.379c0.364-0.014,0.583-0.109,0.655-0.287
					s0.113-0.354,0.122-0.527c0.01-0.16,0.027-0.309,0.054-0.443c0.026-0.137,0.102-0.246,0.226-0.33
					c0.076-0.066,0.147-0.078,0.213-0.033s0.101,0.131,0.105,0.258c0.03,0.762,0.056,1.529,0.078,2.307s0.018,1.547-0.017,2.311
					c-0.01,0.158-0.078,0.236-0.205,0.234c-0.127-0.004-0.193-0.084-0.199-0.242c-0.026-0.27-0.112-0.52-0.256-0.752
					c-0.145-0.232-0.367-0.344-0.668-0.33l-3.946,0.154l0.306,7.797l3.923-0.154c0.19-0.008,0.34-0.041,0.448-0.102
					c0.108-0.059,0.193-0.135,0.253-0.223c0.06-0.09,0.096-0.188,0.107-0.291s0.017-0.203,0.013-0.297
					c0.024-0.191,0.041-0.355,0.052-0.49c0.011-0.137,0.103-0.223,0.275-0.262c0.157-0.037,0.24,0.047,0.248,0.252
					c0.03,0.777,0.053,1.555,0.068,2.33c0.014,0.777,0.013,1.549-0.005,2.311c-0.01,0.158-0.07,0.244-0.181,0.258
					c-0.11,0.012-0.185-0.061-0.223-0.219c-0.06-0.299-0.142-0.562-0.245-0.787c-0.104-0.227-0.339-0.332-0.703-0.318l-9.628,0.377
					c-0.063,0.004-0.162,0.016-0.296,0.037c-0.134,0.02-0.275,0.049-0.425,0.088c-0.149,0.037-0.287,0.078-0.412,0.123
					s-0.195,0.09-0.209,0.139c-0.013,0.08-0.021,0.164-0.025,0.252c-0.005,0.086-0.006,0.17-0.002,0.25
					c0.005,0.143-0.001,0.289-0.019,0.439c-0.019,0.152-0.08,0.301-0.185,0.449L322.258,226.918z"/>
			</g>
			<g>
				<path fill="#00528B" d="M68.596,183.729c-0.035,0.09-0.06,0.182-0.071,0.275c-0.012,0.096-0.027,0.182-0.043,0.26
					c-0.037,0.17-0.027,0.314,0.027,0.432c0.057,0.117,0.152,0.238,0.287,0.365c0.298,0.275,0.752,0.596,1.362,0.963
					s1.287,0.748,2.029,1.143s1.498,0.785,2.267,1.168c0.77,0.385,1.463,0.727,2.08,1.021c0.22,0.111,0.43,0.209,0.631,0.293
					s0.382,0.168,0.542,0.25c1.065,0.555,2.14,1.123,3.223,1.705s2.147,1.236,3.19,1.963c0.087,0.053,0.117,0.139,0.09,0.264
					c-0.026,0.123-0.084,0.201-0.171,0.23c-1.468,0.414-3.039,0.74-4.714,0.98c-1.674,0.24-3.315,0.447-4.926,0.619
					c-0.816,0.1-1.557,0.18-2.219,0.24c-0.661,0.061-1.395,0.15-2.199,0.27c0.848,0.588,1.729,1.184,2.646,1.785
					c0.917,0.604,1.81,1.186,2.679,1.744c0.471,0.297,0.992,0.633,1.561,1.006c0.568,0.375,1.15,0.756,1.749,1.143
					c0.598,0.389,1.181,0.773,1.747,1.154c0.566,0.383,1.074,0.736,1.523,1.059c0.084,0.066,0.108,0.158,0.076,0.271
					c-0.033,0.115-0.096,0.195-0.186,0.24c-1.688,0.156-3.227,0.275-4.615,0.357s-2.754,0.109-4.094,0.08
					c-1.309-0.021-2.616-0.035-3.922-0.041c-1.305-0.004-2.543,0.078-3.715,0.246c-0.016-0.002-0.069,0.002-0.161,0.016
					c-0.092,0.012-0.197,0.029-0.315,0.053c-0.119,0.023-0.233,0.047-0.344,0.072c-0.111,0.025-0.184,0.041-0.219,0.051l0.033-0.043
					c-0.15,0.098-0.268,0.211-0.352,0.338c-0.084,0.129-0.157,0.26-0.219,0.393c-0.116,0.314-0.287,0.578-0.511,0.789
					c-0.089,0.111-0.171,0.135-0.245,0.07c-0.076-0.066-0.099-0.168-0.068-0.307c0.203-0.947,0.415-1.891,0.634-2.834
					c0.22-0.941,0.446-1.883,0.681-2.822c0.049-0.15,0.129-0.223,0.241-0.215s0.169,0.084,0.169,0.23
					c0.02,0.135,0.03,0.238,0.031,0.311c0,0.074,0,0.15-0.002,0.232c0.005,0.131,0.014,0.258,0.027,0.383
					c0.014,0.123,0.049,0.24,0.107,0.352c0.714,0.072,1.524,0.133,2.43,0.182c0.906,0.049,1.828,0.098,2.768,0.146
					c0.939,0.047,1.855,0.086,2.749,0.117c0.894,0.029,1.692,0.051,2.396,0.064c0.702,0.014,1.481,0.031,2.336,0.053
					c-0.811-0.531-1.543-1.01-2.197-1.434c-0.654-0.426-1.406-0.912-2.254-1.459c-0.847-0.547-1.707-1.109-2.58-1.688
					c-0.874-0.578-1.734-1.143-2.58-1.699c-0.846-0.555-1.595-1.049-2.248-1.48c-0.083-0.066-0.113-0.154-0.09-0.264
					c0.023-0.107,0.081-0.186,0.172-0.23c1.508-0.373,3.138-0.672,4.889-0.895c1.752-0.223,3.5-0.43,5.245-0.623
					c0.398-0.043,0.759-0.08,1.081-0.107s0.634-0.059,0.933-0.092c0.3-0.033,0.599-0.07,0.899-0.111
					c0.301-0.039,0.636-0.086,1.004-0.137c-0.797-0.447-1.693-0.936-2.689-1.467c-0.997-0.531-2.022-1.043-3.076-1.537
					c-1.053-0.496-2.082-0.939-3.084-1.334s-1.906-0.678-2.713-0.852c-0.201-0.043-0.352,0.033-0.451,0.232
					c-0.099,0.197-0.188,0.4-0.266,0.611c-0.027,0.059-0.049,0.119-0.062,0.182c-0.01,0.047-0.026,0.084-0.049,0.111
					c-0.061,0.133-0.148,0.182-0.264,0.15c-0.114-0.033-0.164-0.121-0.149-0.264c0.05-0.461,0.147-0.91,0.29-1.35
					c0.144-0.439,0.264-0.885,0.36-1.334c0.083-0.387,0.135-0.777,0.155-1.172c0.02-0.393,0.129-0.754,0.33-1.084L68.596,183.729z"
					/>
				<path fill="#00528B" d="M86.279,182.295c-0.108,0.264-0.2,0.531-0.276,0.797c-0.075,0.268-0.17,0.543-0.283,0.822l-0.318,0.846
					c-0.042,0.119-0.086,0.271-0.134,0.457c-0.047,0.186-0.099,0.381-0.153,0.59c-0.055,0.207-0.119,0.402-0.191,0.588
					s-0.148,0.322-0.23,0.41c-0.092,0.119-0.197,0.125-0.319,0.016s-0.144-0.227-0.067-0.35c0.056-0.064,0.082-0.127,0.077-0.188
					s-0.001-0.105,0.009-0.137c0.042-0.119,0.028-0.236-0.041-0.354c-0.068-0.115-0.17-0.223-0.305-0.318
					c-0.134-0.098-0.272-0.184-0.414-0.258c-0.143-0.074-0.273-0.133-0.394-0.174l-9.149-3.168c-0.3-0.104-0.557-0.053-0.77,0.15
					s-0.381,0.434-0.504,0.693c-0.066,0.145-0.156,0.193-0.266,0.148c-0.109-0.047-0.146-0.148-0.109-0.303
					c0.095-0.371,0.219-0.73,0.373-1.08c0.155-0.348,0.292-0.695,0.412-1.041c0.119-0.344,0.221-0.686,0.305-1.027
					c0.084-0.34,0.201-0.676,0.35-1.012c0.062-0.129,0.146-0.18,0.254-0.15s0.153,0.115,0.137,0.262
					c-0.059,0.314-0.08,0.594-0.062,0.834s0.205,0.424,0.565,0.549l9.083,3.143c0.06,0.021,0.153,0.041,0.281,0.061
					c0.127,0.02,0.264,0.037,0.409,0.053c0.146,0.018,0.286,0.023,0.421,0.02c0.136-0.002,0.23-0.012,0.286-0.025
					c0.03-0.041,0.069-0.102,0.115-0.188c0.046-0.084,0.082-0.164,0.108-0.238c0.057-0.166,0.119-0.309,0.186-0.428
					s0.173-0.221,0.318-0.305L86.279,182.295z"/>
				<path fill="#00528B" d="M87.747,173.545c0.285,0.516,0.469,1.082,0.554,1.701s0.083,1.252-0.005,1.893
					c-0.087,0.643-0.229,1.199-0.424,1.666c-0.098,0.234-0.227,0.482-0.387,0.742s-0.35,0.484-0.567,0.678s-0.461,0.332-0.729,0.418
					c-0.269,0.086-0.556,0.064-0.862-0.064c-0.146-0.061-0.289-0.143-0.428-0.242c-0.139-0.102-0.275-0.215-0.412-0.34
					c-0.131-0.141-0.316-0.27-0.561-0.389c-0.058-0.025-0.086-0.07-0.084-0.139c0.003-0.066,0.017-0.131,0.041-0.189
					s0.062-0.107,0.113-0.146s0.105-0.045,0.163-0.021l0.264,0.109c0.295,0.158,0.585,0.215,0.87,0.17
					c0.285-0.043,0.553-0.15,0.805-0.32c0.251-0.17,0.473-0.383,0.665-0.637c0.192-0.256,0.347-0.521,0.463-0.801
					c0.098-0.232,0.166-0.51,0.204-0.828c0.039-0.32,0.037-0.635-0.005-0.945c-0.042-0.309-0.14-0.59-0.292-0.844
					c-0.152-0.252-0.375-0.439-0.668-0.561c-0.264-0.111-0.559-0.145-0.887-0.1c-0.328,0.043-0.681,0.127-1.06,0.252
					c-0.379,0.127-0.763,0.283-1.151,0.475c-0.389,0.189-0.779,0.383-1.171,0.58c-0.438,0.229-0.884,0.451-1.335,0.668
					c-0.451,0.215-0.893,0.396-1.323,0.543s-0.839,0.238-1.224,0.275s-0.745-0.016-1.082-0.156
					c-0.541-0.225-0.924-0.586-1.146-1.084c-0.222-0.496-0.339-1.039-0.351-1.629c-0.012-0.588,0.049-1.178,0.183-1.766
					c0.134-0.59,0.284-1.082,0.448-1.477c0.264-0.629,0.586-1.217,0.969-1.762c0.096-0.148,0.197-0.184,0.301-0.105l0.615,0.256
					c0.293,0.123,0.585,0.258,0.875,0.404c0.291,0.148,0.496,0.35,0.612,0.604c0.036,0.119,0.017,0.227-0.058,0.324
					c-0.076,0.098-0.164,0.125-0.267,0.082c-0.278-0.115-0.546-0.154-0.803-0.115s-0.499,0.127-0.729,0.262
					c-0.229,0.137-0.43,0.311-0.604,0.521c-0.174,0.211-0.312,0.441-0.416,0.689c-0.104,0.25-0.166,0.512-0.188,0.787
					c-0.02,0.273,0.004,0.537,0.07,0.789c0.067,0.252,0.186,0.48,0.356,0.689s0.396,0.371,0.673,0.488
					c0.25,0.104,0.527,0.139,0.834,0.104s0.628-0.117,0.965-0.242c0.336-0.127,0.672-0.283,1.008-0.469
					c0.335-0.186,0.66-0.369,0.975-0.547c0.404-0.227,0.815-0.459,1.232-0.697c0.418-0.238,0.838-0.432,1.262-0.582
					c0.424-0.148,0.84-0.242,1.25-0.277s0.805,0.027,1.186,0.186C87.044,172.658,87.464,173.031,87.747,173.545z"/>
				<path fill="#00528B" d="M93.638,158.793c0.549,0.82,0.874,1.701,0.978,2.641c0.104,0.939,0.015,1.92-0.268,2.939
					s-0.691,2.025-1.228,3.016c-0.22,0.404-0.451,0.807-0.695,1.205c-0.244,0.4-0.488,0.795-0.736,1.184
					c-0.27,0.432-0.551,0.885-0.843,1.357s-0.549,0.93-0.769,1.369c-0.076,0.139-0.174,0.186-0.293,0.139s-0.154-0.146-0.107-0.301
					c0.158-0.457,0.178-0.793,0.061-1.01s-0.412-0.453-0.887-0.711l-8.492-4.604c-0.277-0.15-0.498-0.16-0.658-0.031
					s-0.3,0.27-0.418,0.422c-0.096,0.111-0.193,0.217-0.293,0.314c-0.1,0.102-0.201,0.148-0.309,0.145
					c-0.084-0.01-0.14-0.049-0.166-0.117c-0.025-0.068-0.013-0.15,0.04-0.248c0.106-0.195,0.214-0.385,0.322-0.57
					c0.109-0.184,0.224-0.369,0.343-0.559c0.15-0.242,0.309-0.5,0.473-0.771c0.166-0.271,0.312-0.525,0.441-0.762
					c0.324-0.6,0.632-1.217,0.923-1.854c0.146-0.301,0.303-0.625,0.474-0.975c0.172-0.35,0.336-0.67,0.495-0.963
					c0.302-0.559,0.761-1.131,1.377-1.717c0.615-0.586,1.296-1.092,2.04-1.518c0.746-0.426,1.517-0.727,2.313-0.898
					c0.798-0.172,1.521-0.127,2.173,0.135c0.211,0.08,0.42,0.174,0.629,0.287c0.195,0.107,0.391,0.213,0.586,0.318
					C92.259,157.262,93.091,157.973,93.638,158.793z M88.066,158.113c-0.861-0.023-1.667,0.131-2.415,0.463
					c-0.75,0.334-1.439,0.816-2.07,1.449c-0.632,0.633-1.17,1.359-1.616,2.182c-0.151,0.279-0.288,0.566-0.411,0.859
					c-0.123,0.295-0.219,0.604-0.287,0.928l8.074,4.375c0.391,0.213,0.725,0.326,1.005,0.342c0.28,0.018,0.53-0.045,0.751-0.188
					c0.222-0.141,0.422-0.344,0.601-0.607s0.362-0.57,0.552-0.92c0.4-0.738,0.703-1.494,0.905-2.268
					c0.203-0.775,0.26-1.52,0.17-2.236c-0.09-0.715-0.341-1.385-0.753-2.004c-0.412-0.621-1.037-1.158-1.874-1.611
					C89.806,158.393,88.929,158.139,88.066,158.113z"/>
				<path fill="#00528B" d="M103.384,145.193c0.373,0.85,0.557,1.738,0.551,2.664c-0.007,0.928-0.179,1.852-0.516,2.773
					c-0.336,0.922-0.784,1.768-1.344,2.537c-0.559,0.77-1.251,1.418-2.076,1.947c-0.824,0.527-1.691,0.893-2.603,1.094
					s-1.835,0.225-2.772,0.072c-0.938-0.152-1.805-0.518-2.602-1.096c-0.872-0.633-1.511-1.387-1.916-2.26
					c-0.404-0.871-0.62-1.783-0.646-2.732c-0.026-0.949,0.122-1.9,0.442-2.855c0.32-0.953,0.773-1.834,1.36-2.643
					c0.578-0.795,1.291-1.439,2.138-1.932c0.848-0.49,1.742-0.816,2.682-0.977s1.888-0.145,2.844,0.051
					c0.957,0.195,1.832,0.582,2.628,1.16C102.401,143.613,103.011,144.346,103.384,145.193z M98.112,143.627
					c-0.773-0.217-1.537-0.293-2.293-0.223c-0.756,0.068-1.476,0.289-2.16,0.664c-0.684,0.377-1.277,0.91-1.781,1.604
					c-0.466,0.641-0.794,1.309-0.984,2.004c-0.191,0.695-0.24,1.375-0.146,2.041c0.094,0.666,0.328,1.303,0.702,1.906
					c0.374,0.605,0.895,1.15,1.562,1.635c0.68,0.494,1.411,0.85,2.195,1.066c0.783,0.217,1.561,0.287,2.332,0.209
					c0.771-0.076,1.505-0.303,2.2-0.68s1.3-0.918,1.812-1.625c0.477-0.654,0.801-1.324,0.977-2.01
					c0.175-0.688,0.205-1.361,0.088-2.025c-0.116-0.662-0.373-1.293-0.769-1.896c-0.396-0.6-0.922-1.139-1.576-1.615
					C99.604,144.197,98.884,143.846,98.112,143.627z"/>
				<path fill="#00528B" d="M120.021,132.535c-0.953,0.977-1.935,1.914-2.943,2.812c-0.066,0.068-0.137,0.1-0.209,0.096
					c-0.073-0.006-0.127-0.047-0.162-0.125c-0.057-0.1-0.137-0.205-0.239-0.316s-0.21-0.221-0.323-0.332
					c-0.613-0.598-1.266-1.168-1.956-1.709s-1.388-1.076-2.089-1.605c-0.215-0.166-0.399-0.301-0.552-0.406
					c-0.153-0.104-0.297-0.207-0.433-0.307c-0.137-0.1-0.274-0.201-0.416-0.305c-0.142-0.105-0.314-0.246-0.519-0.424
					c0.283,1.119,0.599,2.219,0.949,3.303c0.35,1.084,0.7,2.174,1.05,3.268c0.162,0.492,0.32,0.979,0.472,1.459
					s0.298,0.967,0.438,1.457c0.023,0.09,0.008,0.168-0.047,0.236c-0.056,0.068-0.134,0.109-0.234,0.121
					c-0.606-0.037-1.225-0.113-1.854-0.23c-0.629-0.115-1.26-0.248-1.889-0.396c-0.631-0.15-1.25-0.316-1.857-0.5
					c-0.607-0.182-1.193-0.359-1.756-0.533c-0.271-0.086-0.498-0.158-0.684-0.219c-0.187-0.059-0.363-0.115-0.533-0.17
					c-0.168-0.053-0.346-0.109-0.531-0.17c-0.186-0.059-0.414-0.121-0.684-0.186c0.205,0.246,0.393,0.484,0.564,0.717
					c0.17,0.234,0.348,0.473,0.529,0.717c0.502,0.668,1.012,1.326,1.53,1.975c0.519,0.65,1.067,1.258,1.646,1.822l0.273,0.266
					c0.158,0.156,0.285,0.275,0.383,0.357c0.096,0.084,0.176,0.139,0.236,0.166c0.062,0.027,0.121,0.029,0.178,0.006
					c0.055-0.023,0.128-0.059,0.217-0.104c0.078-0.035,0.162-0.08,0.251-0.139c0.089-0.057,0.272-0.137,0.552-0.242
					c0.123-0.057,0.213-0.035,0.271,0.064s0.036,0.201-0.063,0.303c-0.477,0.488-0.955,0.969-1.438,1.439
					c-0.482,0.473-0.973,0.941-1.472,1.406c-0.111,0.092-0.212,0.098-0.303,0.021c-0.091-0.078-0.097-0.178-0.021-0.303
					c0.066-0.113,0.143-0.215,0.231-0.307c0.089-0.113,0.169-0.223,0.24-0.33s0.084-0.229,0.038-0.363
					c-0.035-0.1-0.189-0.338-0.464-0.717c-0.273-0.377-0.616-0.834-1.026-1.367s-0.871-1.121-1.384-1.766s-1.025-1.283-1.538-1.916
					c-0.512-0.633-1.002-1.232-1.469-1.799s-0.859-1.049-1.179-1.449c-0.125-0.166-0.242-0.314-0.351-0.441
					c-0.107-0.127-0.19-0.23-0.247-0.309c-0.058-0.078-0.062-0.164-0.012-0.26s0.13-0.156,0.241-0.18
					c0.247-0.025,0.711,0.033,1.391,0.176s1.468,0.33,2.362,0.561c0.894,0.229,1.837,0.484,2.827,0.764s1.908,0.531,2.752,0.756
					c0.664,0.184,1.164,0.328,1.502,0.438c0.338,0.107,0.642,0.193,0.912,0.258c-0.223-0.727-0.447-1.439-0.674-2.137
					c-0.228-0.699-0.458-1.406-0.691-2.121c-0.162-0.49-0.32-0.982-0.472-1.475c-0.152-0.49-0.31-0.982-0.473-1.475
					c-0.047-0.156-0.099-0.328-0.157-0.52c-0.059-0.189-0.111-0.363-0.158-0.52c-0.163-0.49-0.318-0.996-0.465-1.516
					s-0.273-1.055-0.381-1.604c-0.002-0.111,0.048-0.201,0.148-0.27c0.1-0.068,0.189-0.076,0.269-0.021
					c1.278,0.916,2.534,1.844,3.769,2.781c0.102,0.078,0.213,0.168,0.332,0.273s0.269,0.225,0.449,0.355
					c0.386,0.311,0.827,0.67,1.326,1.078c0.498,0.408,1,0.797,1.503,1.168c0.503,0.369,0.974,0.693,1.408,0.975
					c0.436,0.281,0.771,0.436,1.007,0.467c0.259,0.053,0.48,0.031,0.664-0.066s0.354-0.203,0.509-0.318
					c0.111-0.068,0.194-0.137,0.25-0.205c0.056-0.066,0.206-0.148,0.451-0.24L120.021,132.535z"/>
			</g>
			<g>
				<polygon fill="#00528B" stroke="#00528B" stroke-width="2" stroke-miterlimit="10" points="129.59,123.242 128.014,124.43 
					127.878,123.414 121.345,114.732 120.433,114.354 122.009,113.168 122.114,114.154 128.647,122.836 				"/>
				<polygon fill="#00528B" stroke="#00528B" stroke-width="2" stroke-miterlimit="10" points="120.566,123.377 119.38,121.801 
					120.395,121.664 129.077,115.133 129.456,114.221 130.643,115.797 129.657,115.9 120.974,122.434 				"/>
			</g>
			<g>
				<polygon fill="#00528B" stroke="#00528B" stroke-width="2" stroke-miterlimit="10" points="277.249,119.33 276.039,120.885 
					275.641,119.943 267.072,113.262 266.092,113.135 267.305,111.578 267.662,112.502 276.232,119.184 				"/>
				<polygon fill="#00528B" stroke="#00528B" stroke-width="2" stroke-miterlimit="10" points="268.573,121.811 267.017,120.598 
					267.96,120.203 274.642,111.633 274.769,110.652 276.324,111.865 275.401,112.225 268.72,120.795 				"/>
			</g>
			<g>
				<polygon fill="#00528B" stroke="#00528B" stroke-width="2" stroke-miterlimit="10" points="333.707,240.816 333.457,242.771 
					332.635,242.164 321.857,240.789 320.949,241.178 321.199,239.221 321.979,239.834 332.76,241.209 				"/>
				<polygon fill="#00528B" stroke="#00528B" stroke-width="2" stroke-miterlimit="10" points="327.51,247.375 325.554,247.125 
					326.163,246.307 327.537,235.525 327.148,234.619 329.104,234.867 328.491,235.646 327.117,246.426 				"/>
			</g>
			<g>
				<polygon fill="#00528B" stroke="#00528B" stroke-width="2" stroke-miterlimit="10" points="266.483,334.559 267.348,336.328 
					266.325,336.27 256.553,341.02 256.008,341.844 255.146,340.07 256.132,340.156 265.906,335.406 				"/>
				<polygon fill="#00528B" stroke="#00528B" stroke-width="2" stroke-miterlimit="10" points="264.89,343.438 263.116,344.299 
					263.178,343.281 258.426,333.506 257.604,332.963 259.376,332.1 259.292,333.086 264.043,342.859 				"/>
			</g>
			<g>
				<polygon fill="#00528B" stroke="#00528B" stroke-width="2" stroke-miterlimit="10" points="147.111,334.559 148.913,335.357 
					148.093,335.969 143.681,345.9 143.792,346.879 141.989,346.08 142.802,345.51 147.214,335.578 				"/>
				<polygon fill="#00528B" stroke="#00528B" stroke-width="2" stroke-miterlimit="10" points="151.612,342.377 150.812,344.18 
					150.202,343.361 140.271,338.943 139.29,339.061 140.091,337.258 140.661,338.066 150.593,342.48 				"/>
			</g>
			<g>
				<polygon fill="#00528B" stroke="#00528B" stroke-width="2" stroke-miterlimit="10" points="77.544,219.381 77.462,221.354 
					76.592,220.816 65.734,220.369 64.863,220.834 64.944,218.863 65.774,219.406 76.631,219.855 				"/>
				<polygon fill="#00528B" stroke="#00528B" stroke-width="2" stroke-miterlimit="10" points="71.929,226.449 69.958,226.367 
					70.495,225.496 70.944,214.639 70.478,213.768 72.449,213.85 71.905,214.678 71.456,225.535 				"/>
			</g>
		</g>
		<g>
			<path fill="#FFE89B" stroke="#000000" stroke-width="2" d="M270.074,182.629L199.683,60.708l-70.391,121.921l-70.391,121.92
				h140.781h140.783L270.074,182.629z M98.723,281.297l50.48-87.434l50.479-87.436l50.48,87.436l50.481,87.434H199.683H98.723z"/>
			<path fill="#00528B" stroke="#000000" d="M267.895,183.949l-68.212-118.14l-68.209,118.14L63.265,302.092h136.418h136.42
				L267.895,183.949z M94.442,283.682l52.621-91.141l52.619-91.141l52.621,91.141l52.62,91.141H199.683H94.442z"/>
			<polygon fill="#FFFFFF" stroke="#FFFFFF" stroke-width="0.5" points="199.782,79.836 201.465,84.566 205.998,82.41 
				203.842,86.945 208.571,88.627 203.842,90.309 205.998,94.843 201.465,92.688 199.782,97.418 198.099,92.688 193.565,94.843 
				195.721,90.309 190.991,88.627 195.721,86.945 193.565,82.41 198.099,84.566 			"/>
			<path fill="#D1D3D4" stroke="#FFFFFF" stroke-width="0.5" d="M90.837,293.693c-4.213,0-7.627-3.414-7.627-7.625
				c0-2.188,0.928-4.154,2.402-5.545c-3.748,0.48-6.647,3.678-6.647,7.557c0,4.209,3.415,7.623,7.626,7.623
				c2.024,0,3.859-0.793,5.225-2.08C91.493,293.666,91.169,293.693,90.837,293.693z"/>
			<g>
				<circle fill="#FFDE17" stroke="#FFDE17" stroke-width="0.5" cx="315.806" cy="290.783" r="3.895"/>
				<g>
					<polygon fill="#FFDE17" points="314.806,286.891 315.806,281.473 316.806,286.891 					"/>
				</g>
				<g>
					<polygon fill="#FFDE17" points="313.095,287.816 311.435,282.562 314.86,286.877 					"/>
				</g>
				<g>
					<polygon fill="#FFDE17" points="312.018,289.436 308.087,285.578 313.137,287.777 					"/>
				</g>
				<g>
					<polygon fill="#FFDE17" points="311.828,291.371 306.546,289.811 312.037,289.383 					"/>
				</g>
				<g>
					<polygon fill="#FFDE17" points="312.569,293.17 307.173,294.271 311.819,291.316 					"/>
				</g>
				<g>
					<polygon fill="#FFDE17" points="314.067,294.41 309.82,297.916 312.536,293.125 					"/>
				</g>
				<g>
					<polygon fill="#FFDE17" points="315.974,294.803 313.868,299.891 314.017,294.387 					"/>
				</g>
				<g>
					<polygon fill="#FFDE17" points="317.839,294.254 318.37,299.734 315.917,294.805 					"/>
				</g>
				<g>
					<polygon fill="#FFDE17" points="319.23,292.893 322.271,297.484 317.791,294.281 					"/>
				</g>
				<g>
					<polygon fill="#FFDE17" points="319.819,291.037 324.659,293.664 319.2,292.939 					"/>
				</g>
				<g>
					<polygon fill="#FFDE17" points="319.469,289.123 324.975,289.172 319.814,291.094 					"/>
				</g>
				<g>
					<polygon fill="#FFDE17" points="318.26,287.6 323.144,285.057 319.49,289.176 					"/>
				</g>
				<g>
					<polygon fill="#FFDE17" points="316.477,286.82 319.595,282.281 318.303,287.635 					"/>
				</g>
			</g>
		</g>
	</g>
</g>
<g id="Logo_1_">
</g>
<g id="Square_down_buttons">
</g>
<g id="Cube">
</g>
<g id="Vajra_Grid">
</g>
</svg>
