<?xml version="1.0" encoding="utf-8"?>
<!-- Generator: Adobe Illustrator 16.0.0, SVG Export Plug-In . SVG Version: 6.00 Build 0)  -->
<!DOCTYPE svg PUBLIC "-//W3C//DTD SVG 1.1//EN" "http://www.w3.org/Graphics/SVG/1.1/DTD/svg11.dtd">
<svg version="1.1" xmlns="http://www.w3.org/2000/svg" xmlns:xlink="http://www.w3.org/1999/xlink" x="0px" y="0px"
	 width="82.074px" height="48.432px" viewBox="0 0 82.074 48.432" enable-background="new 0 0 82.074 48.432" xml:space="preserve">
<g id="Mini_logo">
</g>
<g id="Container">
</g>
<g id="Logo_1_">
</g>
<g id="Square_down_buttons">
	<path fill="#FFFFFF" d="M1.617,4.301l39.539,42.654L80.991,4.373l-0.906-0.582c-0.453-0.25-0.938-0.371-1.46-0.371
		c-0.498,0-0.967,0.107-1.422,0.211c-0.74,0.168-1.441,0.273-1.986,0.016c-0.799-0.377-1.631-1.033-1.959-1.303L41.11,36.449
		L9.898,2.625c-0.26,0.178-0.865,0.564-1.754,0.951c-0.788,0.34-1.5,0.305-2.492,0.164C5.286,3.693,4.875,3.635,4.38,3.596
		C3.104,3.492,2.049,4.039,1.617,4.301z"/>
</g>
<g id="Cube">
</g>
<g id="Vajra_Grid">
</g>
</svg>
