<?xml version="1.0" encoding="utf-8"?>
<!-- Generator: Adobe Illustrator 16.0.0, SVG Export Plug-In . SVG Version: 6.00 Build 0)  -->
<!DOCTYPE svg PUBLIC "-//W3C//DTD SVG 1.1//EN" "http://www.w3.org/Graphics/SVG/1.1/DTD/svg11.dtd">
<svg version="1.1" xmlns="http://www.w3.org/2000/svg" xmlns:xlink="http://www.w3.org/1999/xlink" x="0px" y="0px"
	 width="83.416px" height="163.629px" viewBox="0 0 83.416 163.629" enable-background="new 0 0 83.416 163.629"
	 xml:space="preserve">
<g id="Mini_logo">
</g>
<g id="Container">
</g>
<g id="Logo_1_">
</g>
<g id="Square_down_buttons">
	<path fill="#8ED8F8" d="M2.232,2.84l39.539,42.654L81.606,2.912L80.7,2.33c-0.453-0.25-0.938-0.371-1.46-0.371
		c-0.498,0-0.967,0.107-1.422,0.211c-0.74,0.168-1.441,0.273-1.986,0.016c-0.799-0.377-1.631-1.033-1.959-1.303L41.726,34.988
		L10.514,1.164c-0.26,0.178-0.865,0.564-1.754,0.951c-0.788,0.34-1.5,0.305-2.492,0.164C5.901,2.232,5.49,2.174,4.995,2.135
		C3.719,2.031,2.664,2.578,2.232,2.84z"/>
	<path fill="#FFFFFF" d="M2.232,59.701l39.539,42.654l39.835-42.582L80.7,59.191c-0.453-0.25-0.938-0.371-1.46-0.371
		c-0.498,0-0.967,0.107-1.422,0.211c-0.74,0.168-1.441,0.273-1.986,0.016c-0.799-0.377-1.631-1.033-1.959-1.303L41.726,91.85
		L10.514,58.025c-0.26,0.178-0.865,0.564-1.754,0.951c-0.788,0.34-1.5,0.305-2.492,0.164c-0.366-0.047-0.777-0.105-1.272-0.145
		C3.719,58.893,2.664,59.439,2.232,59.701z"/>
	<path fill="#00528B" d="M2.232,118.426l39.539,42.654l39.835-42.582l-0.906-0.582c-0.453-0.25-0.938-0.371-1.46-0.371
		c-0.498,0-0.967,0.107-1.422,0.211c-0.74,0.168-1.441,0.273-1.986,0.016c-0.799-0.377-1.631-1.033-1.959-1.303l-32.147,34.105
		L10.514,116.75c-0.26,0.178-0.865,0.564-1.754,0.951c-0.788,0.34-1.5,0.305-2.492,0.164c-0.366-0.047-0.777-0.105-1.272-0.145
		C3.719,117.617,2.664,118.164,2.232,118.426z"/>
</g>
<g id="Cube">
</g>
<g id="Vajra_Grid">
</g>
</svg>
