<?xml version="1.0" encoding="utf-8"?>
<!-- Generator: Adobe Illustrator 16.0.0, SVG Export Plug-In . SVG Version: 6.00 Build 0)  -->
<!DOCTYPE svg PUBLIC "-//W3C//DTD SVG 1.1//EN" "http://www.w3.org/Graphics/SVG/1.1/DTD/svg11.dtd">
<svg version="1.1" xmlns="http://www.w3.org/2000/svg" xmlns:xlink="http://www.w3.org/1999/xlink" x="0px" y="0px"
	 width="61.649px" height="60.415px" viewBox="0 0 61.649 60.415" enable-background="new 0 0 61.649 60.415" xml:space="preserve">
<g id="Mini_logo">
</g>
<g id="Container">
	<g id="Small_Logo_2_">
		<g id="XMLID_1_">
			<g>
				<path fill="#0097DC" d="M36.203,25.209c0.3,0.25,0.391,0.648,0.248,1.082c-0.196,0.617-0.759,1.051-1.255,0.943
					c-0.042-0.01-0.104-0.062-0.162-0.112c-0.095-0.076-0.2-0.168-0.333-0.173c-0.42,0-0.63,0.525-0.683,0.688
					c-0.009,0.025,0,0.051,0.015,0.076c0.147,0.184,0.096,0.281,0,0.444c-0.043,0.086-0.091,0.184-0.119,0.306
					c-0.053,0.312-0.109,0.449-0.215,0.607c-0.014,0.021-0.023,0.051-0.014,0.076c0.014,0.025,0.033,0.041,0.062,0.046
					c0.066,0.011,0.076,0.092,0.071,0.286V29.5c-0.109,0.086-0.219,0.163-0.338,0.239c-0.301,0.199-0.602,0.408-0.787,0.755
					c0,0.016-0.005,0.031-0.005,0.046c0.024,0.215-0.023,0.342-0.091,0.49c-0.019,0.035-0.004,0.076,0.024,0.097
					c0.314,0.209,0.505,0.643,0.501,1.133c-0.01,0.484-0.215,0.913-0.529,1.106c-0.024,0.016-0.034,0.036-0.039,0.062
					c-0.004,0.025,0.005,0.046,0.024,0.066c0.124,0.117,0.229,0.352,0.114,0.622c-0.005,0.016-0.005,0.036,0,0.051
					c0.066,0.261,0.396,0.429,0.711,0.592c0.271,0.138,0.553,0.281,0.572,0.434c0.009,0.082-0.053,0.174-0.172,0.275
					c-0.015,0.021-0.024,0.052-0.02,0.077c0.005,0.03,0.02,0.051,0.053,0.056c0.129,0.031,0.139,0.194,0.139,0.429
					c0,0.076,0,0.153,0.004,0.22c0.005,0.025,0.02,0.051,0.053,0.061c0.119,0.036,0.195,0.118,0.215,0.229
					c0.023,0.133-0.033,0.281-0.139,0.383c-0.033,0.025-0.038,0.071-0.014,0.103l0.023,0.04c0.157,0.23,0.334,0.5,0.725,0.521
					c0.02,0,0.043-0.005,0.062-0.021c0.152-0.173,0.338-0.265,0.538-0.265c0.405,0,0.825,0.377,0.997,0.888
					c0.138,0.438,0.043,0.842-0.271,1.106c-0.02,0.011-0.029,0.036-0.029,0.062c0,0.021,0.01,0.046,0.029,0.056
					c0.204,0.158,0.314,0.454,0.3,0.791c-0.019,0.337-0.157,0.622-0.362,0.755c-0.033,0.016-0.043,0.062-0.023,0.098
					c0.119,0.244,0.133,0.494,0.033,0.734c-0.129,0.321-0.458,0.606-0.82,0.714c-0.033,0.011-0.053,0.036-0.053,0.066
					c-0.071,0.576-0.596,0.831-1.072,0.831c-0.076,0-0.144-0.005-0.215-0.015c-0.015-0.005-0.033,0.005-0.053,0.015
					c-0.457,0.439-1.106,0.761-1.988,0.979c-0.038,0.011-0.062,0.046-0.057,0.087c0.01,0.087,0.019,0.184,0.034,0.281
					c0.009,0.188,0.023,0.382,0.076,0.54c-0.01,0-0.01,0-0.01,0c-0.052-0.021-0.133-0.025-0.186,0.046
					c-0.038,0.062-0.071,0.123-0.104,0.189c-0.077,0.147-0.143,0.285-0.263,0.361c-0.076-0.071-0.138-0.173-0.2-0.26
					c-0.09-0.133-0.176-0.26-0.286-0.331c0.029-0.133,0.034-0.286,0.048-0.439c0.01-0.133,0.014-0.265,0.038-0.388
					c0.005-0.035-0.014-0.076-0.052-0.087c-0.129-0.04-0.262-0.081-0.396-0.117c-0.257-0.076-0.515-0.147-0.792-0.271
					c-0.162-0.071-0.319-0.188-0.467-0.296c-0.186-0.132-0.357-0.265-0.539-0.311c-0.067-0.016-0.158-0.016-0.239-0.005
					c-0.057,0.005-0.109,0.015-0.167,0.005c-0.51-0.077-0.739-0.495-0.839-0.837c-0.01-0.025-0.029-0.041-0.057-0.051
					c-0.234-0.03-0.42-0.163-0.548-0.372c-0.167-0.281-0.2-0.664-0.091-1.052c0.005-0.02,0.005-0.04-0.005-0.056
					c-0.009-0.021-0.023-0.03-0.042-0.041c-0.21-0.062-0.363-0.234-0.439-0.489c-0.095-0.337-0.024-0.735,0.172-0.979
					c0.014-0.016,0.024-0.036,0.019-0.062c-0.005-0.021-0.015-0.041-0.034-0.051c-0.41-0.307-0.319-0.816-0.257-1.021
					c0.138-0.479,0.562-0.984,1.073-0.984c0.053,0,0.11,0.005,0.162,0.021c0.057,0.01,0.11,0.056,0.167,0.102
					c0.086,0.066,0.181,0.143,0.31,0.143c0.167,0,0.338-0.086,0.472-0.229c0.128-0.152,0.205-0.336,0.2-0.52
					c-0.005-0.066-0.034-0.128-0.057-0.179c-0.024-0.052-0.048-0.098-0.043-0.133c0.004-0.071,0.047-0.138,0.1-0.215
					c0.047-0.061,0.1-0.138,0.124-0.224c0.019-0.062,0.004-0.123-0.01-0.174c-0.009-0.016-0.014-0.046-0.014-0.056
					c0.009-0.077,0.057-0.133,0.105-0.189c0.052-0.061,0.109-0.133,0.124-0.234c0.004-0.025-0.005-0.051-0.02-0.066
					c-0.085-0.092-0.124-0.179-0.114-0.255c0.019-0.158,0.253-0.312,0.477-0.459c0.343-0.225,0.763-0.5,0.629-0.949
					c0.028-0.035,0.043-0.071,0.062-0.107c0.023-0.056,0.047-0.106,0.085-0.122c0.024-0.016,0.043-0.036,0.043-0.062
					c0.005-0.03-0.009-0.056-0.028-0.071c-0.505-0.383-0.801-1.316-0.415-1.954c0.038-0.065,0.095-0.111,0.153-0.157
					c0.085-0.077,0.186-0.164,0.219-0.327c0.009-0.021,0.005-0.041-0.01-0.061c-0.009-0.016-0.028-0.031-0.052-0.031
					c-0.048-0.005-0.067-0.025-0.072-0.041c-0.052-0.071-0.004-0.265,0.019-0.377l0.015-0.057c0.005-0.015,0.005-0.03,0-0.04
					c-0.105-0.316-0.381-0.434-0.653-0.552c-0.305-0.127-0.567-0.239-0.605-0.592c0-0.02,0.014-0.03,0.066-0.056
					c0.043-0.025,0.105-0.056,0.134-0.133c0.005-0.021,0-0.046-0.005-0.062c-0.014-0.02-0.029-0.035-0.048-0.04
					c-0.147-0.036-0.157-0.153-0.147-0.398c0.004-0.076,0.009-0.147,0-0.209c0-0.016-0.005-0.025-0.01-0.036
					c-0.047-0.065-0.109-0.111-0.167-0.152c-0.047-0.031-0.095-0.066-0.124-0.107c-0.004-0.112,0.039-0.168,0.091-0.239
					c0.043-0.057,0.091-0.123,0.11-0.22c0.004-0.025,0-0.051-0.019-0.071c-0.034-0.031-0.067-0.082-0.101-0.133
					c-0.128-0.184-0.31-0.438-0.658-0.383c-0.11,0.021-0.196,0.092-0.277,0.158c-0.076,0.062-0.143,0.122-0.214,0.128
					c-0.5,0.035-0.868-0.419-1.006-0.873c-0.12-0.388-0.11-0.902,0.257-1.188c0.014-0.015,0.028-0.035,0.028-0.061
					c0-0.021-0.009-0.046-0.028-0.062c-0.181-0.158-0.281-0.429-0.272-0.729c0.019-0.337,0.158-0.653,0.367-0.812
					c0.029-0.021,0.043-0.061,0.029-0.097c-0.115-0.255-0.124-0.495-0.029-0.729c0.138-0.367,0.496-0.612,0.782-0.725
					c0.019-0.01,0.043-0.03,0.043-0.056c0.133-0.622,0.553-0.888,1.287-0.826c0.019,0.005,0.038-0.006,0.053-0.016
					c0.434-0.413,1.059-0.714,1.959-0.944c0.038-0.005,0.057-0.04,0.057-0.076c-0.019-0.234-0.057-0.541-0.09-0.806
					c0.167-0.031,0.248-0.194,0.319-0.342c0.062-0.117,0.124-0.235,0.219-0.281c0.072,0.072,0.139,0.169,0.205,0.261
					c0.091,0.133,0.181,0.26,0.291,0.331c-0.048,0.275-0.076,0.582-0.091,0.867c-0.004,0.041,0.024,0.077,0.058,0.082
					c0.81,0.179,1.54,0.505,2.16,0.979c0.015,0.016,0.038,0.021,0.058,0.016c0.066-0.016,0.129-0.021,0.195-0.021
					c0.562,0,0.93,0.479,1.087,0.893c0.005,0.025,0.024,0.046,0.048,0.051c0.233,0.046,0.429,0.209,0.549,0.444
					c0.143,0.29,0.162,0.652,0.033,0.974c-0.01,0.021-0.01,0.041,0,0.062c0.014,0.021,0.023,0.036,0.043,0.041
					c0.219,0.056,0.386,0.25,0.462,0.525c0.091,0.347,0.015,0.725-0.19,0.938c-0.015,0.021-0.02,0.036-0.02,0.062
					C36.179,25.174,36.184,25.194,36.203,25.209z M34.053,23.857c0.023-0.378-0.043-0.679-0.215-0.903
					c-0.238-0.321-0.658-0.428-0.949-0.459c-0.038,0-0.062-0.025-0.066-0.061c-0.091-0.521-0.481-0.878-0.982-0.894
					c0.033,0.256,0.043,0.516,0.057,0.766c0.019,0.454,0.039,0.883,0.167,1.255c0.014,0.046,0.038,0.076,0.066,0.117
					c0.043,0.057,0.091,0.128,0.104,0.22c0.02,0.188-0.052,0.408-0.119,0.633c-0.048,0.138-0.091,0.28-0.114,0.418
					c-0.109,0.602-0.229,1.229-0.143,1.811c0.077,0.031,0.181,0.041,0.277,0.057c0.1,0.01,0.19,0.021,0.281,0.051
					c0.01,0,0.015-0.005,0.019-0.005c0.101-0.367,0.21-0.648,0.435-0.913c0.172-0.204,0.396-0.342,0.586-0.465
					c0.134-0.081,0.263-0.163,0.349-0.25c0.104-0.102,0.205-0.275,0.195-0.397c-0.01-0.046-0.033-0.082-0.076-0.112
					c-0.119-0.021-0.152,0.021-0.205,0.103c-0.043,0.081-0.129,0.198-0.314,0.147c-0.115-0.03-0.191-0.112-0.21-0.24
					c-0.038-0.214,0.095-0.525,0.286-0.673c0.138-0.107,0.271-0.133,0.391-0.158C33.934,23.888,33.99,23.878,34.053,23.857z
					 M34.028,39.784c0.033-0.117-0.071-0.312-0.124-0.378c-0.1-0.106-0.238-0.188-0.391-0.275c-0.182-0.102-0.391-0.219-0.544-0.397
					c-0.224-0.275-0.305-0.571-0.396-0.919c-0.015-0.035-0.023-0.076-0.033-0.112c-0.124,0.011-0.248,0.031-0.367,0.052
					c-0.076,0.01-0.162,0.025-0.238,0.035c-0.015,0.99,0.147,2.01,0.424,2.668c0.01,0.021,0.01,0.041,0,0.057
					c-0.262,0.709-0.334,1.551-0.386,2.499c0.524-0.106,0.758-0.53,0.92-0.928c0.01-0.025,0.033-0.046,0.062-0.046
					c0.329,0,0.581-0.103,0.753-0.301c0.215-0.235,0.319-0.592,0.31-1.041c-0.281-0.041-0.548-0.234-0.677-0.479
					c-0.096-0.204-0.091-0.424,0.02-0.622c0.009-0.016,0.028-0.031,0.043-0.031c0.057-0.016,0.1-0.025,0.143-0.025
					c0.195,0,0.276,0.128,0.344,0.229c0.023,0.036,0.043,0.071,0.076,0.103C34.01,39.845,34.023,39.81,34.028,39.784z
					 M30.805,43.023c0.029-0.459-0.057-1.622-0.2-2.015c-0.014-0.031-0.043-0.066-0.072-0.103c-0.042-0.051-0.09-0.112-0.104-0.193
					c-0.024-0.194,0.042-0.434,0.119-0.684c0.028-0.118,0.057-0.23,0.085-0.342c0.12-0.566,0.172-1.057,0.196-1.796
					c-0.067-0.082-0.219-0.098-0.367-0.112c-0.081-0.005-0.167-0.016-0.243-0.031c-0.143,0.526-0.381,0.908-0.768,1.24
					c-0.105,0.087-0.229,0.158-0.348,0.225c-0.234,0.133-0.453,0.255-0.453,0.459c-0.005,0.107,0.095,0.204,0.138,0.209
					c0.062,0,0.096-0.041,0.143-0.112c0.062-0.092,0.158-0.209,0.324-0.168c0.077,0.015,0.139,0.061,0.177,0.133
					c0.057,0.111,0.066,0.28,0.009,0.459c-0.109,0.347-0.553,0.505-0.801,0.54c-0.043,0.353,0.014,0.644,0.167,0.857
					c0.191,0.266,0.52,0.429,0.973,0.484c0.029,0.006,0.053,0.025,0.062,0.057C29.985,42.641,30.3,42.932,30.805,43.023z
					 M30.433,26.826c0.086-0.015,0.177-0.03,0.296-0.046c-0.053-0.877-0.11-1.974-0.424-2.663c-0.01-0.015-0.01-0.04,0-0.061
					c0.286-0.745,0.357-1.694,0.386-2.541c-0.405,0.082-0.663,0.353-0.854,0.898c-0.005,0.025-0.029,0.046-0.058,0.046
					c-0.744,0.061-1.106,0.52-1.101,1.397c0.343-0.021,0.677,0.357,0.734,0.699c0.038,0.198-0.029,0.352-0.182,0.413
					c-0.047,0.021-0.095,0.035-0.138,0.035c-0.143,0-0.214-0.112-0.267-0.204c-0.047-0.071-0.076-0.122-0.133-0.138
					c-0.029,0.031-0.043,0.066-0.043,0.112c-0.014,0.123,0.067,0.261,0.114,0.321c0.101,0.128,0.258,0.229,0.42,0.342
					c0.229,0.148,0.491,0.321,0.648,0.592c0.138,0.235,0.195,0.485,0.276,0.801c0,0.011,0,0.021,0,0.031
					c0,0.005,0.005,0.005,0.005,0.01C30.243,26.852,30.338,26.842,30.433,26.826z"/>
			</g>
			<g>
				<path fill="none" stroke="#010101" stroke-width="0.5" stroke-linecap="round" stroke-linejoin="round" d="M31.396,46.054
					c-0.014,0-0.029-0.005-0.043-0.016c-0.11-0.087-0.186-0.209-0.267-0.326c-0.09-0.133-0.176-0.261-0.276-0.301
					c-0.034-0.016-0.057-0.057-0.043-0.092c0.033-0.138,0.043-0.312,0.057-0.475c0.01-0.112,0.014-0.229,0.029-0.337
					c-0.11-0.036-0.22-0.066-0.334-0.102c-0.257-0.072-0.524-0.144-0.811-0.271c-0.176-0.077-0.334-0.199-0.491-0.316
					c-0.176-0.123-0.338-0.24-0.491-0.286c-0.052-0.01-0.124-0.005-0.195,0c-0.062,0.006-0.133,0.016-0.2,0.006
					c-0.439-0.066-0.772-0.388-0.935-0.898c-0.253-0.046-0.467-0.204-0.605-0.434c-0.177-0.301-0.224-0.699-0.129-1.106
					c-0.219-0.087-0.381-0.286-0.462-0.566c-0.105-0.362-0.043-0.775,0.152-1.062c-0.295-0.26-0.391-0.679-0.257-1.143
					c0.157-0.53,0.634-1.092,1.211-1.092c0.062,0,0.129,0.005,0.191,0.021c0.086,0.016,0.152,0.076,0.224,0.133
					c0.071,0.056,0.143,0.112,0.224,0.112c0.124,0,0.262-0.066,0.367-0.184c0.105-0.123,0.167-0.266,0.162-0.408
					c0-0.031-0.019-0.071-0.043-0.117c-0.029-0.062-0.062-0.133-0.057-0.21c0.009-0.122,0.071-0.209,0.128-0.296
					c0.043-0.061,0.086-0.117,0.105-0.184c0-0.015-0.009-0.051-0.014-0.076c-0.014-0.036-0.029-0.082-0.019-0.122
					c0.019-0.123,0.086-0.199,0.138-0.271c0.038-0.041,0.067-0.082,0.081-0.123c-0.095-0.122-0.133-0.234-0.124-0.352
					c0.029-0.229,0.281-0.393,0.543-0.571c0.42-0.271,0.682-0.475,0.563-0.806c-0.015-0.031-0.01-0.062,0.014-0.082
					c0.024-0.025,0.043-0.066,0.062-0.107c0.019-0.035,0.038-0.081,0.071-0.122c-0.524-0.454-0.792-1.413-0.376-2.097
					c0.052-0.087,0.119-0.143,0.176-0.199c0.067-0.051,0.119-0.097,0.153-0.168c-0.038-0.021-0.067-0.046-0.091-0.082
					c-0.09-0.133-0.033-0.347,0.005-0.5l0.005-0.03c-0.091-0.24-0.319-0.337-0.563-0.438c-0.3-0.128-0.648-0.275-0.696-0.729
					c0.009-0.128,0.086-0.174,0.138-0.199c-0.157-0.107-0.143-0.332-0.138-0.505c0.005-0.057,0.009-0.112,0.005-0.163
					c-0.029-0.036-0.072-0.066-0.115-0.098c-0.062-0.04-0.133-0.086-0.181-0.173c-0.005-0.011-0.005-0.021-0.005-0.031
					c-0.019-0.184,0.057-0.285,0.115-0.361c0.033-0.041,0.057-0.077,0.076-0.123c-0.029-0.035-0.057-0.076-0.091-0.117
					c-0.114-0.174-0.252-0.367-0.515-0.321c-0.077,0.01-0.143,0.066-0.215,0.127c-0.086,0.072-0.176,0.148-0.291,0.158
					c-0.577,0.046-0.997-0.469-1.149-0.979c-0.129-0.413-0.124-0.959,0.238-1.301c-0.176-0.193-0.271-0.479-0.257-0.79
					c0.014-0.367,0.157-0.699,0.377-0.893c-0.105-0.276-0.105-0.546-0.01-0.796c0.157-0.398,0.529-0.669,0.834-0.796
					c0.152-0.663,0.615-0.97,1.397-0.908c0.443-0.408,1.059-0.709,1.941-0.934c-0.024-0.25-0.058-0.562-0.091-0.816
					c0-0.025,0.005-0.051,0.019-0.066s0.038-0.025,0.057-0.021c0.124,0.016,0.181-0.092,0.267-0.26
					c0.076-0.153,0.162-0.321,0.339-0.378c0.019-0.005,0.047,0,0.062,0.016c0.1,0.087,0.181,0.204,0.262,0.316
					c0.095,0.138,0.186,0.265,0.286,0.311c0.028,0.011,0.048,0.046,0.038,0.087c-0.048,0.261-0.077,0.557-0.096,0.842
					c0.797,0.179,1.517,0.505,2.132,0.975c0.066-0.016,0.129-0.021,0.195-0.021c0.615,0,1.025,0.505,1.206,0.954
					c0.253,0.062,0.468,0.25,0.597,0.516c0.162,0.306,0.186,0.684,0.076,1.025c0.229,0.092,0.4,0.311,0.477,0.611
					c0.096,0.362,0.028,0.761-0.172,1.021c0.301,0.296,0.396,0.729,0.243,1.204c-0.224,0.679-0.872,1.163-1.421,1.041
					c-0.076-0.016-0.143-0.077-0.219-0.144c-0.086-0.061-0.172-0.138-0.234-0.138c-0.314,0-0.486,0.378-0.553,0.546
					c0.181,0.25,0.086,0.429,0,0.587c-0.043,0.076-0.086,0.163-0.101,0.26c-0.062,0.281-0.109,0.439-0.195,0.587
					c0.101,0.082,0.101,0.266,0.091,0.403v0.056c0,0.025-0.01,0.046-0.023,0.062c-0.12,0.097-0.248,0.184-0.377,0.266
					c-0.286,0.193-0.558,0.377-0.72,0.678c0.014,0.215-0.029,0.357-0.086,0.49c0.329,0.25,0.52,0.714,0.51,1.229
					c-0.01,0.5-0.205,0.943-0.524,1.188c0.152,0.188,0.19,0.454,0.101,0.699c0.071,0.184,0.367,0.331,0.634,0.469
					c0.319,0.158,0.615,0.316,0.648,0.557c0.01,0.106-0.033,0.219-0.139,0.326c0.139,0.112,0.139,0.347,0.134,0.525
					c0,0.057,0,0.107,0.005,0.153c0.139,0.061,0.238,0.173,0.267,0.326c0.034,0.168-0.019,0.347-0.138,0.479
					c0.143,0.215,0.281,0.413,0.572,0.444c0.186-0.189,0.4-0.286,0.624-0.286c0.458,0,0.944,0.424,1.126,0.989
					c0.152,0.465,0.062,0.914-0.248,1.215c0.195,0.198,0.31,0.51,0.281,0.862c-0.01,0.352-0.152,0.668-0.367,0.831
					c0.119,0.271,0.119,0.541,0.01,0.801c-0.139,0.357-0.478,0.663-0.873,0.791c-0.119,0.714-0.811,0.979-1.396,0.903
					c-0.463,0.434-1.106,0.755-1.965,0.974c0.005,0.071,0.014,0.144,0.019,0.22c0.015,0.209,0.034,0.423,0.091,0.576
					c0.02,0.025,0.015,0.057-0.005,0.077c-0.052,0.071-0.143,0.065-0.195,0.046c-0.014-0.006-0.028-0.006-0.038-0.006
					c-0.029,0.046-0.057,0.107-0.091,0.169c-0.085,0.179-0.176,0.356-0.367,0.454C31.416,46.049,31.411,46.054,31.396,46.054z"/>
				<path fill="none" stroke="#010101" stroke-width="0.5" stroke-linecap="round" stroke-linejoin="round" d="M30.919,45.294
					c0.11,0.071,0.196,0.198,0.286,0.331c0.062,0.087,0.124,0.188,0.2,0.26c0.12-0.076,0.186-0.214,0.263-0.361
					c0.033-0.066,0.066-0.128,0.104-0.189c0.053-0.071,0.134-0.066,0.186-0.046c0,0,0,0,0.01,0c-0.053-0.158-0.067-0.352-0.076-0.54
					c-0.015-0.098-0.024-0.194-0.034-0.281c-0.005-0.041,0.019-0.076,0.057-0.087c0.882-0.219,1.531-0.54,1.988-0.979
					c0.02-0.01,0.038-0.02,0.053-0.015c0.071,0.01,0.139,0.015,0.215,0.015c0.477,0,1.001-0.255,1.072-0.831
					c0-0.03,0.02-0.056,0.053-0.066c0.362-0.107,0.691-0.393,0.82-0.714c0.1-0.24,0.086-0.49-0.033-0.734
					c-0.02-0.036-0.01-0.082,0.023-0.098c0.205-0.133,0.344-0.418,0.362-0.755c0.015-0.337-0.096-0.633-0.3-0.791
					c-0.02-0.01-0.029-0.035-0.029-0.056c0-0.025,0.01-0.051,0.029-0.062c0.314-0.265,0.409-0.668,0.271-1.106
					C36.27,37.677,35.85,37.3,35.444,37.3c-0.2,0-0.386,0.092-0.538,0.265c-0.02,0.016-0.043,0.021-0.062,0.021
					c-0.391-0.021-0.567-0.29-0.725-0.521l-0.023-0.04c-0.024-0.031-0.02-0.077,0.014-0.103c0.105-0.102,0.162-0.25,0.139-0.383
					c-0.02-0.111-0.096-0.193-0.215-0.229C34,36.3,33.985,36.274,33.98,36.249c-0.004-0.066-0.004-0.144-0.004-0.22
					c0-0.234-0.01-0.397-0.139-0.429c-0.033-0.005-0.048-0.025-0.053-0.056c-0.005-0.025,0.005-0.057,0.02-0.077
					c0.119-0.102,0.181-0.193,0.172-0.275c-0.02-0.152-0.301-0.296-0.572-0.434c-0.315-0.163-0.645-0.331-0.711-0.592
					c-0.005-0.015-0.005-0.035,0-0.051c0.114-0.271,0.01-0.505-0.114-0.622c-0.02-0.021-0.028-0.041-0.024-0.066
					c0.005-0.025,0.015-0.046,0.039-0.062c0.314-0.193,0.52-0.622,0.529-1.106c0.004-0.49-0.187-0.924-0.501-1.133
					c-0.028-0.021-0.043-0.062-0.024-0.097c0.067-0.148,0.115-0.275,0.091-0.49c0-0.015,0.005-0.03,0.005-0.046
					c0.186-0.347,0.486-0.556,0.787-0.755c0.119-0.076,0.229-0.153,0.338-0.239v-0.021c0.005-0.194-0.005-0.275-0.071-0.286
					c-0.028-0.005-0.048-0.021-0.062-0.046c-0.01-0.025,0-0.056,0.014-0.076c0.105-0.158,0.162-0.296,0.215-0.607
					c0.028-0.122,0.076-0.22,0.119-0.306c0.096-0.163,0.147-0.261,0-0.444c-0.015-0.025-0.023-0.051-0.015-0.076
					c0.053-0.163,0.263-0.688,0.683-0.688c0.133,0.005,0.238,0.097,0.333,0.173c0.058,0.051,0.12,0.103,0.162,0.112
					c0.496,0.107,1.059-0.326,1.255-0.943c0.143-0.434,0.052-0.832-0.248-1.082c-0.02-0.015-0.024-0.035-0.029-0.056
					c0-0.025,0.005-0.041,0.02-0.062c0.205-0.214,0.281-0.592,0.19-0.938c-0.076-0.275-0.243-0.47-0.462-0.525
					c-0.02-0.005-0.029-0.021-0.043-0.041c-0.01-0.021-0.01-0.041,0-0.062c0.129-0.321,0.109-0.684-0.033-0.974
					c-0.12-0.235-0.315-0.398-0.549-0.444c-0.023-0.005-0.043-0.025-0.048-0.051c-0.157-0.413-0.524-0.893-1.087-0.893
					c-0.066,0-0.129,0.005-0.195,0.021c-0.02,0.005-0.043,0-0.058-0.016c-0.62-0.475-1.35-0.801-2.16-0.979
					c-0.034-0.005-0.062-0.041-0.058-0.082c0.015-0.285,0.043-0.592,0.091-0.867c-0.11-0.071-0.2-0.198-0.291-0.331
					c-0.066-0.092-0.133-0.188-0.205-0.261c-0.095,0.046-0.157,0.164-0.219,0.281c-0.071,0.147-0.152,0.311-0.319,0.342
					c0.033,0.265,0.071,0.571,0.09,0.806c0,0.036-0.019,0.071-0.057,0.076c-0.901,0.23-1.526,0.531-1.959,0.944
					c-0.015,0.01-0.034,0.021-0.053,0.016c-0.734-0.062-1.154,0.204-1.287,0.826c0,0.025-0.024,0.046-0.043,0.056
					c-0.286,0.112-0.644,0.357-0.782,0.725c-0.095,0.234-0.086,0.475,0.029,0.729c0.014,0.036,0,0.076-0.029,0.097
					c-0.209,0.158-0.348,0.475-0.367,0.812c-0.009,0.301,0.091,0.571,0.272,0.729c0.019,0.016,0.028,0.041,0.028,0.062
					c0,0.025-0.014,0.046-0.028,0.061c-0.367,0.286-0.377,0.801-0.257,1.188c0.138,0.454,0.505,0.908,1.006,0.873
					c0.072-0.006,0.138-0.066,0.214-0.128c0.081-0.066,0.167-0.138,0.277-0.158c0.348-0.056,0.529,0.199,0.658,0.383
					c0.034,0.051,0.067,0.102,0.101,0.133c0.019,0.021,0.023,0.046,0.019,0.071c-0.019,0.097-0.067,0.163-0.11,0.22
					c-0.052,0.071-0.095,0.127-0.091,0.239c0.029,0.041,0.077,0.076,0.124,0.107c0.058,0.041,0.12,0.087,0.167,0.152
					c0.005,0.011,0.01,0.021,0.01,0.036c0.009,0.062,0.004,0.133,0,0.209c-0.01,0.245,0,0.362,0.147,0.398
					c0.019,0.005,0.034,0.021,0.048,0.04c0.005,0.016,0.01,0.041,0.005,0.062c-0.029,0.077-0.091,0.107-0.134,0.133
					c-0.052,0.025-0.066,0.036-0.066,0.056c0.038,0.353,0.3,0.465,0.605,0.592c0.272,0.118,0.548,0.235,0.653,0.552
					c0.005,0.01,0.005,0.025,0,0.04l-0.015,0.057c-0.023,0.112-0.071,0.306-0.019,0.377c0.005,0.016,0.024,0.036,0.072,0.041
					c0.024,0,0.043,0.016,0.052,0.031c0.015,0.02,0.019,0.04,0.01,0.061c-0.034,0.163-0.134,0.25-0.219,0.327
					c-0.058,0.046-0.115,0.092-0.153,0.157c-0.386,0.638-0.09,1.571,0.415,1.954c0.019,0.016,0.033,0.041,0.028,0.071
					c0,0.025-0.019,0.046-0.043,0.062c-0.038,0.016-0.062,0.066-0.085,0.122c-0.019,0.036-0.034,0.072-0.062,0.107
					c0.133,0.449-0.286,0.725-0.629,0.949c-0.224,0.147-0.458,0.301-0.477,0.459c-0.009,0.076,0.029,0.163,0.114,0.255
					c0.015,0.016,0.024,0.041,0.02,0.066c-0.015,0.102-0.072,0.174-0.124,0.234c-0.048,0.057-0.096,0.112-0.105,0.189
					c0,0.01,0.005,0.04,0.014,0.056c0.014,0.051,0.029,0.112,0.01,0.174c-0.024,0.086-0.077,0.163-0.124,0.224
					c-0.053,0.077-0.096,0.144-0.1,0.215c-0.005,0.035,0.019,0.081,0.043,0.133c0.023,0.051,0.052,0.112,0.057,0.179
					c0.005,0.184-0.072,0.367-0.2,0.52c-0.134,0.144-0.305,0.229-0.472,0.229c-0.129,0-0.224-0.076-0.31-0.143
					c-0.057-0.046-0.11-0.092-0.167-0.102c-0.052-0.016-0.109-0.021-0.162-0.021c-0.51,0-0.935,0.505-1.073,0.984
					c-0.062,0.204-0.152,0.714,0.257,1.021c0.019,0.01,0.029,0.03,0.034,0.051c0.005,0.025-0.005,0.046-0.019,0.062
					c-0.196,0.244-0.267,0.643-0.172,0.979c0.076,0.255,0.229,0.428,0.439,0.489c0.019,0.011,0.033,0.021,0.042,0.041
					c0.01,0.016,0.01,0.036,0.005,0.056c-0.109,0.388-0.076,0.771,0.091,1.052c0.128,0.209,0.314,0.342,0.548,0.372
					c0.028,0.01,0.047,0.025,0.057,0.051c0.1,0.342,0.329,0.76,0.839,0.837c0.057,0.01,0.109,0,0.167-0.005
					c0.081-0.011,0.172-0.011,0.239,0.005c0.181,0.046,0.353,0.179,0.539,0.311c0.148,0.107,0.305,0.225,0.467,0.296
					c0.277,0.123,0.534,0.194,0.792,0.271c0.134,0.036,0.267,0.077,0.396,0.117c0.038,0.011,0.057,0.052,0.052,0.087
					c-0.024,0.123-0.028,0.255-0.038,0.388C30.953,45.008,30.948,45.161,30.919,45.294z"/>
				<path fill="none" stroke="#010101" stroke-width="0.5" stroke-linecap="round" stroke-linejoin="round" d="M28.641,40.732
					c-0.043,0.353,0.014,0.644,0.167,0.857c0.191,0.266,0.52,0.429,0.973,0.484c0.029,0.006,0.053,0.025,0.062,0.057
					c0.143,0.51,0.458,0.801,0.963,0.893c0.029-0.459-0.057-1.622-0.2-2.015c-0.014-0.031-0.043-0.066-0.072-0.103
					c-0.042-0.051-0.09-0.112-0.104-0.193c-0.024-0.194,0.042-0.434,0.119-0.684c0.028-0.118,0.057-0.23,0.085-0.342
					c0.12-0.566,0.172-1.057,0.196-1.796c-0.067-0.082-0.219-0.098-0.367-0.112c-0.081-0.005-0.167-0.016-0.243-0.031
					c-0.143,0.526-0.381,0.908-0.768,1.24c-0.105,0.087-0.229,0.158-0.348,0.225c-0.234,0.133-0.453,0.255-0.453,0.459
					c-0.005,0.107,0.095,0.204,0.138,0.209c0.062,0,0.096-0.041,0.143-0.112c0.062-0.092,0.158-0.209,0.324-0.168
					c0.077,0.015,0.139,0.061,0.177,0.133c0.057,0.111,0.066,0.28,0.009,0.459C29.332,40.539,28.888,40.697,28.641,40.732z"/>
				<path fill="none" stroke="#010101" stroke-width="0.5" stroke-linecap="round" stroke-linejoin="round" d="M31.936,37.789
					c-0.015,0.99,0.147,2.01,0.424,2.668c0.01,0.021,0.01,0.041,0,0.057c-0.262,0.709-0.334,1.551-0.386,2.499
					c0.524-0.106,0.758-0.53,0.92-0.928c0.01-0.025,0.033-0.046,0.062-0.046c0.329,0,0.581-0.103,0.753-0.301
					c0.215-0.235,0.319-0.592,0.31-1.041c-0.281-0.041-0.548-0.234-0.677-0.479c-0.096-0.204-0.091-0.424,0.02-0.622
					c0.009-0.016,0.028-0.031,0.043-0.031c0.057-0.016,0.1-0.025,0.143-0.025c0.195,0,0.276,0.128,0.344,0.229
					c0.023,0.036,0.043,0.071,0.076,0.103c0.043-0.026,0.057-0.062,0.062-0.087c0.033-0.117-0.071-0.312-0.124-0.378
					c-0.1-0.106-0.238-0.188-0.391-0.275c-0.182-0.102-0.391-0.219-0.544-0.397c-0.224-0.275-0.305-0.571-0.396-0.919
					c-0.015-0.035-0.023-0.076-0.033-0.112c-0.124,0.011-0.248,0.031-0.367,0.052C32.098,37.764,32.012,37.779,31.936,37.789z"/>
				<path fill="none" stroke="#010101" stroke-width="0.5" stroke-linecap="round" stroke-linejoin="round" d="M28.693,24.663
					c-0.029,0.031-0.043,0.066-0.043,0.112c-0.014,0.123,0.067,0.261,0.114,0.321c0.101,0.128,0.258,0.229,0.42,0.342
					c0.229,0.148,0.491,0.321,0.648,0.592c0.138,0.235,0.195,0.485,0.276,0.801c0,0.011,0,0.021,0,0.031
					c0,0.005,0.005,0.005,0.005,0.01c0.129-0.021,0.224-0.03,0.319-0.046c0.086-0.015,0.177-0.03,0.296-0.046
					c-0.053-0.877-0.11-1.974-0.424-2.663c-0.01-0.015-0.01-0.04,0-0.061c0.286-0.745,0.357-1.694,0.386-2.541
					c-0.405,0.082-0.663,0.353-0.854,0.898c-0.005,0.025-0.029,0.046-0.058,0.046c-0.744,0.061-1.106,0.52-1.101,1.397
					c0.343-0.021,0.677,0.357,0.734,0.699c0.038,0.198-0.029,0.352-0.182,0.413c-0.047,0.021-0.095,0.035-0.138,0.035
					c-0.143,0-0.214-0.112-0.267-0.204C28.779,24.729,28.75,24.679,28.693,24.663z"/>
				<path fill="none" stroke="#010101" stroke-width="0.5" stroke-linecap="round" stroke-linejoin="round" d="M31.859,26.76
					c0.077,0.031,0.181,0.041,0.277,0.057c0.1,0.01,0.19,0.021,0.281,0.051c0.01,0,0.015-0.005,0.019-0.005
					c0.101-0.367,0.21-0.648,0.435-0.913c0.172-0.204,0.396-0.342,0.586-0.465c0.134-0.081,0.263-0.163,0.349-0.25
					c0.104-0.102,0.205-0.275,0.195-0.397c-0.01-0.046-0.033-0.082-0.076-0.112c-0.119-0.021-0.152,0.021-0.205,0.103
					c-0.043,0.081-0.129,0.198-0.314,0.147c-0.115-0.03-0.191-0.112-0.21-0.24c-0.038-0.214,0.095-0.525,0.286-0.673
					c0.138-0.107,0.271-0.133,0.391-0.158c0.062-0.016,0.119-0.025,0.182-0.046c0.023-0.378-0.043-0.679-0.215-0.903
					c-0.238-0.321-0.658-0.428-0.949-0.459c-0.038,0-0.062-0.025-0.066-0.061c-0.091-0.521-0.481-0.878-0.982-0.894
					c0.033,0.256,0.043,0.516,0.057,0.766c0.019,0.454,0.039,0.883,0.167,1.255c0.014,0.046,0.038,0.076,0.066,0.117
					c0.043,0.057,0.091,0.128,0.104,0.22c0.02,0.188-0.052,0.408-0.119,0.633c-0.048,0.138-0.091,0.28-0.114,0.418
					C31.893,25.551,31.773,26.179,31.859,26.76z"/>
			</g>
		</g>
		<g>
			<linearGradient id="SVGID_1_" gradientUnits="userSpaceOnUse" x1="31.2954" y1="58.0771" x2="31.2954" y2="26.2256">
				<stop  offset="0.1191" style="stop-color:#646567"/>
				<stop  offset="0.2356" style="stop-color:#616264"/>
				<stop  offset="0.2414" style="stop-color:#58595B"/>
				<stop  offset="0.7855" style="stop-color:#E2E3E5"/>
				<stop  offset="1" style="stop-color:#E6E7E8"/>
			</linearGradient>
			<path fill="url(#SVGID_1_)" d="M31.19,58.077l28.294-30.25l-0.795-0.51c-1.404-0.77-2.533,0.322-3.447-0.107
				c-0.695-0.33-1.445-0.984-1.445-0.984L31.161,50.243L9.188,26.431c0,0-0.479,0.363-1.309,0.725
				c-0.832,0.361-1.352,0.1-2.588,0.004c-1.238-0.096-2.186,0.619-2.186,0.619L31.19,58.077z"/>
			<path fill="#010101" stroke="#000000" stroke-miterlimit="10" d="M31.19,58.294l-0.1-0.109L2.887,27.759l0.137-0.104
				c0.04-0.029,1.003-0.746,2.278-0.646c0.355,0.027,0.648,0.066,0.911,0.102c0.659,0.094,1.109,0.123,1.614-0.096
				c0.803-0.35,1.273-0.707,1.277-0.709l0.101-0.076l0.085,0.092l21.871,23.705l22.628-24.008l0.098,0.088
				c0.006,0.006,0.744,0.645,1.416,0.963c0.314,0.146,0.75,0.074,1.223-0.033c0.334-0.076,0.682-0.154,1.062-0.154
				c0.418,0,0.799,0.098,1.17,0.299l0.957,0.615L31.19,58.294z M3.335,27.808L31.19,57.86l28.065-30.002l-0.639-0.41
				c-0.318-0.176-0.66-0.262-1.029-0.262c-0.352,0-0.682,0.076-1.002,0.148c-0.521,0.119-1.016,0.193-1.398,0.012
				c-0.564-0.266-1.15-0.729-1.381-0.918L31.159,50.458L9.169,26.626c-0.184,0.127-0.609,0.398-1.236,0.672
				c-0.555,0.238-1.057,0.215-1.756,0.115C5.919,27.38,5.63,27.339,5.28,27.312C4.382,27.237,3.638,27.624,3.335,27.808z"/>
		</g>
		<g id="Left_Compass_2_">
			<g>
				<linearGradient id="SVGID_2_" gradientUnits="userSpaceOnUse" x1="4.8135" y1="27.8428" x2="33.8438" y2="27.8428">
					<stop  offset="0" style="stop-color:#FFFAC2"/>
					<stop  offset="0.2762" style="stop-color:#F4E09C"/>
					<stop  offset="0.7158" style="stop-color:#FACD3F"/>
					<stop  offset="0.8942" style="stop-color:#C3922E"/>
				</linearGradient>
				<path fill="url(#SVGID_2_)" d="M33.844,8.05c0,0-5.339-2.672-5.193-2.57c0.143,0.1-23.837,44.73-23.837,44.73
					s15.984-24.586,16.814-25.326c0.83-0.742,1.716-0.441,1.716-0.441s5.951-9.521,6.038-9.65c0.752-1.104,1.822-0.98,1.822-0.98
					L33.844,8.05z"/>
				<path fill="#010101" d="M5.164,50.472l-0.722-0.488C12.423,35.128,27.544,6.919,28.229,5.37
					c0.004-0.008,0.006-0.018,0.008-0.025l0.09-0.326h0.32c0.128,0,0.151,0,5.376,2.617l0.395,0.197l-2.96,6.467l-0.299-0.033
					c-0.004,0-0.021-0.002-0.053-0.002c-0.25,0-0.889,0.078-1.378,0.797c-0.109,0.17-3.993,6.377-6.03,9.635l-0.178,0.285
					l-0.306-0.104l0,0c0,0-0.671-0.215-1.313,0.357C21.228,25.901,11.522,40.694,5.164,50.472z M28.854,6.073
					c-0.022,0.047-0.046,0.092-0.071,0.143c-0.168,0.332-0.418,0.818-0.742,1.438c-0.607,1.166-1.511,2.877-2.683,5.084
					c-1.97,3.713-4.729,8.887-8.2,15.373c-2.521,4.709-5.057,9.439-7.143,13.33c4.742-7.242,10.797-16.424,11.338-16.908
					c0.693-0.619,1.402-0.637,1.793-0.596c1.268-2.031,5.807-9.291,5.893-9.414c0.633-0.934,1.479-1.127,1.896-1.164l2.334-5.092
					C31.694,7.478,29.665,6.468,28.854,6.073z"/>
			</g>
		</g>
		<g id="Right_Compass_2_">
			<g>
				<linearGradient id="SVGID_3_" gradientUnits="userSpaceOnUse" x1="41.3721" y1="31.0195" x2="45.9339" y2="28.3857">
					<stop  offset="0" style="stop-color:#FFFAC2"/>
					<stop  offset="0.126" style="stop-color:#F4E09C"/>
					<stop  offset="0.4385" style="stop-color:#FACD3F"/>
					<stop  offset="0.8942" style="stop-color:#C3922E"/>
				</linearGradient>
				<path fill="url(#SVGID_3_)" d="M33.461,6.782c-0.142-0.102-4.587,2.229-4.587,2.229l2.582,4.834c0,0,1.316-0.203,1.936,0.789
					l6.245,10.367c0,0,0.439-0.24,1.686,0.453C42.57,26.147,58.35,50.44,58.35,50.44L33.461,6.782z"/>
				<path fill="#010101" d="M57.998,50.7c-6.238-9.604-15.883-24.146-16.881-24.844c-0.844-0.471-1.246-0.443-1.314-0.432
					l-0.312,0.172l-6.458-10.711c-0.443-0.715-1.475-0.594-1.518-0.588l-0.287,0.041l-0.141-0.266l-2.809-5.26l0.409-0.213
					c4.345-2.281,4.647-2.281,4.76-2.281h0.127l0.203,0.137l0.051,0.086l24.887,43.66L57.998,50.7z M39.883,24.503
					c0.436,0,0.986,0.184,1.637,0.545c0.723,0.4,5.287,7.1,9.59,13.574L33.269,7.319c-0.623,0.268-2.242,1.078-3.795,1.889
					l2.221,4.162c0.504-0.01,1.49,0.105,2.052,1.012l6.104,10.121C39.859,24.503,39.871,24.503,39.883,24.503z"/>
			</g>
		</g>
		<g id="Compass_Top_1_">
			<g>
				<linearGradient id="SVGID_4_" gradientUnits="userSpaceOnUse" x1="27.4746" y1="6.3779" x2="34.1816" y2="6.3779">
					<stop  offset="0" style="stop-color:#FFFAC2"/>
					<stop  offset="0.126" style="stop-color:#F4E09C"/>
					<stop  offset="0.4385" style="stop-color:#FACD3F"/>
					<stop  offset="0.8942" style="stop-color:#C3922E"/>
				</linearGradient>
				<path fill="url(#SVGID_4_)" d="M34.182,6.362c0.008,1.98-1.485,3.594-3.337,3.604c-1.854,0.008-3.359-1.592-3.37-3.572
					c-0.007-1.98,1.487-3.594,3.341-3.604C32.667,2.782,34.172,4.38,34.182,6.362z"/>
				<path fill="#010101" d="M30.828,10.423c-2.075,0-3.771-1.807-3.782-4.027c-0.007-2.23,1.684-4.051,3.766-4.062
					c2.094,0,3.79,1.807,3.798,4.027c0.008,2.23-1.679,4.053-3.765,4.062H30.828z M30.828,3.249
					c-1.626,0.008-2.931,1.416-2.923,3.143c0.006,1.717,1.318,3.117,2.923,3.117v0.457l0.015-0.457
					c1.611-0.008,2.919-1.418,2.911-3.143C33.746,4.647,32.435,3.249,30.828,3.249z"/>
			</g>
			<g>
				<ellipse transform="matrix(1 -0.004 0.004 1 -0.025 0.1225)" fill="#010101" cx="30.875" cy="6.379" rx="1.724" ry="1.843"/>
				<path fill="#010101" d="M30.876,8.376c-1.025,0-1.865-0.893-1.869-1.99c0-0.531,0.189-1.033,0.541-1.412s0.82-0.59,1.316-0.594
					c1.035,0,1.873,0.893,1.877,1.992s-0.83,2-1.859,2.004H30.876z M30.876,4.687c-0.43,0.002-0.828,0.18-1.125,0.502
					c-0.297,0.32-0.459,0.744-0.458,1.197c0.002,0.928,0.711,1.684,1.583,1.684v0.152l0.005-0.152
					c0.874-0.004,1.579-0.766,1.573-1.697C32.45,5.442,31.743,4.687,30.876,4.687z"/>
			</g>
		</g>
	</g>
</g>
<g id="Logo_1_">
</g>
<g id="Square_down_buttons">
</g>
<g id="Cube">
</g>
<g id="Vajra_Grid">
</g>
</svg>
